<svg xmlns="http://www.w3.org/2000/svg">
<symbol id="github" viewBox="0 0 128 128"><g fill="#181616"><path fill-rule="evenodd" d="M64 5.103c-33.347 0-60.388 27.035-60.388 60.388 0 26.682 17.303 49.317 41.297 57.303 3.017.56 4.125-1.31 4.125-2.905 0-1.44-.056-6.197-.082-11.243-16.8 3.653-20.345-7.125-20.345-7.125-2.747-6.98-6.705-8.836-6.705-8.836-5.48-3.748.413-3.67.413-3.67 6.063.425 9.257 6.223 9.257 6.223 5.386 9.23 14.127 6.562 17.573 5.02.542-3.903 2.107-6.568 3.834-8.076-13.413-1.525-27.514-6.704-27.514-29.843 0-6.593 2.36-11.98 6.223-16.21-.628-1.52-2.695-7.662.584-15.98 0 0 5.07-1.623 16.61 6.19C53.7 35 58.867 34.327 64 34.304c5.13.023 10.3.694 15.127 2.033 11.526-7.813 16.59-6.19 16.59-6.19 3.287 8.317 1.22 14.46.593 15.98 3.872 4.23 6.215 9.617 6.215 16.21 0 23.194-14.127 28.3-27.574 29.796 2.167 1.874 4.097 5.55 4.097 11.183 0 8.08-.07 14.583-.07 16.572 0 1.607 1.088 3.49 4.148 2.897 23.98-7.994 41.263-30.622 41.263-57.294C124.388 32.14 97.35 5.104 64 5.104z" clip-rule="evenodd"/><path d="M26.484 91.806c-.133.3-.605.39-1.035.185-.44-.196-.685-.605-.543-.906.13-.31.603-.395 1.04-.188.44.197.69.61.537.91zm2.446 2.729c-.287.267-.85.143-1.232-.28-.396-.42-.47-.983-.177-1.254.298-.266.844-.14 1.24.28.394.426.472.984.17 1.255zm2.382 3.477c-.37.258-.976.017-1.35-.52-.37-.538-.37-1.183.01-1.44.373-.258.97-.025 1.35.507.368.545.368 1.19-.01 1.452zm3.261 3.361c-.33.365-1.036.267-1.552-.23-.527-.487-.674-1.18-.343-1.544.336-.366 1.045-.264 1.564.23.527.486.686 1.18.333 1.543zm4.5 1.951c-.147.473-.825.688-1.51.486-.683-.207-1.13-.76-.99-1.238.14-.477.823-.7 1.512-.485.683.206 1.13.756.988 1.237zm4.943.361c.017.498-.563.91-1.28.92-.723.017-1.308-.387-1.315-.877 0-.503.568-.91 1.29-.924.717-.013 1.306.387 1.306.88zm4.598-.782c.086.485-.413.984-1.126 1.117-.7.13-1.35-.172-1.44-.653-.086-.498.422-.997 1.122-1.126.714-.123 1.354.17 1.444.663zm0 0"/></g></symbol>
<symbol id="github-actions" viewBox="0 0 128 128"><path fill="#2088ff" d="M26.666 0C11.97 0 0 11.97 0 26.666c0 12.87 9.181 23.651 21.334 26.13v37.87c0 11.77 9.68 21.334 21.332 21.334h.195c1.302 9.023 9.1 16 18.473 16C71.612 128 80 119.612 80 109.334s-8.388-18.668-18.666-18.668c-9.372 0-17.17 6.977-18.473 16h-.195c-8.737 0-16-7.152-16-16V63.779a18.514 18.514 0 0 0 13.24 5.555h2.955c1.303 9.023 9.1 16 18.473 16 9.372 0 17.169-6.977 18.47-16h11.057c1.303 9.023 9.1 16 18.473 16 10.278 0 18.666-8.39 18.666-18.668C128 56.388 119.612 48 109.334 48c-9.373 0-17.171 6.977-18.473 16H79.805c-1.301-9.023-9.098-16-18.471-16s-17.171 6.977-18.473 16h-2.955c-6.433 0-11.793-4.589-12.988-10.672 14.58-.136 26.416-12.05 26.416-26.662C53.334 11.97 41.362 0 26.666 0zm0 5.334A21.292 21.292 0 0 1 48 26.666 21.294 21.294 0 0 1 26.666 48 21.292 21.292 0 0 1 5.334 26.666 21.29 21.29 0 0 1 26.666 5.334zm-5.215 7.541C18.67 12.889 16 15.123 16 18.166v17.043c0 4.043 4.709 6.663 8.145 4.533l13.634-8.455c3.257-2.02 3.274-7.002.032-9.045l-13.635-8.59a5.024 5.024 0 0 0-2.725-.777zm-.117 5.291l13.635 8.588-13.635 8.455V18.166zm40 35.168a13.29 13.29 0 0 1 13.332 13.332A13.293 13.293 0 0 1 61.334 80 13.294 13.294 0 0 1 48 66.666a13.293 13.293 0 0 1 13.334-13.332zm48 0a13.29 13.29 0 0 1 13.332 13.332A13.293 13.293 0 0 1 109.334 80 13.294 13.294 0 0 1 96 66.666a13.293 13.293 0 0 1 13.334-13.332zm-42.568 6.951a2.667 2.667 0 0 0-1.887.78l-6.3 6.294-2.093-2.084a2.667 2.667 0 0 0-3.771.006 2.667 2.667 0 0 0 .008 3.772l3.974 3.96a2.667 2.667 0 0 0 3.766-.001l8.185-8.174a2.667 2.667 0 0 0 .002-3.772 2.667 2.667 0 0 0-1.884-.78zm48 0a2.667 2.667 0 0 0-1.887.78l-6.3 6.294-2.093-2.084a2.667 2.667 0 0 0-3.771.006 2.667 2.667 0 0 0 .008 3.772l3.974 3.96a2.667 2.667 0 0 0 3.766-.001l8.185-8.174a2.667 2.667 0 0 0 .002-3.772 2.667 2.667 0 0 0-1.884-.78zM61.334 96a13.293 13.293 0 0 1 13.332 13.334 13.29 13.29 0 0 1-13.332 13.332A13.293 13.293 0 0 1 48 109.334 13.294 13.294 0 0 1 61.334 96zM56 105.334c-2.193 0-4 1.807-4 4 0 2.195 1.808 4 4 4s4-1.805 4-4c0-2.193-1.807-4-4-4zm10.666 0c-2.193 0-4 1.807-4 4 0 2.195 1.808 4 4 4s4-1.805 4-4c0-2.193-1.807-4-4-4zM56 108c.75 0 1.334.585 1.334 1.334 0 .753-.583 1.332-1.334 1.332-.75 0-1.334-.58-1.334-1.332 0-.75.585-1.334 1.334-1.334zm10.666 0c.75 0 1.334.585 1.334 1.334 0 .753-.583 1.332-1.334 1.332-.75 0-1.332-.58-1.332-1.332 0-.75.583-1.334 1.332-1.334z"/><path fill="#79b8ff" d="M109.334 90.666c-9.383 0-17.188 6.993-18.477 16.031a2.667 2.667 0 0 0-.265-.011l-2.7.09a2.667 2.667 0 0 0-2.578 2.751 2.667 2.667 0 0 0 2.752 2.578l2.7-.087a2.667 2.667 0 0 0 .097-.006C92.17 121.029 99.965 128 109.334 128c10.278 0 18.666-8.388 18.666-18.666s-8.388-18.668-18.666-18.668zm0 5.334a13.293 13.293 0 0 1 13.332 13.334 13.29 13.29 0 0 1-13.332 13.332A13.293 13.293 0 0 1 96 109.334 13.294 13.294 0 0 1 109.334 96z"/></symbol>
<symbol id="viewcv" viewBox="0 0 512 512"><path d="M333.205 34.213L330.799 0 9.546 22.591l30.317 431.118 44.011-3.095V512H405.92v-35.276l50.265 5.413 46.27-429.698-169.25-18.226zM83.874 420.519l-16.17 1.137L41.599 50.432l261.359-18.38 3.359 47.765H83.874v340.702zm292.026 61.46H113.895V109.838H375.9v372.141zm53.652-32.906l-23.631-2.545V79.817h-69.508l-1.068-15.18 134.049 14.434-39.842 370.002z" data-original="#000000"/><path d="M147.003 296.746h195.796v30.021H147.003zm0 53.397h195.796v30.021H147.003zm0 53.397h195.796v30.021H147.003zm54.381-174.247c-13.238 0-22.154-9.186-22.154-23.64s8.915-23.64 22.154-23.64c8.511 0 15.13 4.053 20.668 11.078l20.128-17.966c-9.321-12.157-23.911-18.912-42.418-18.912-30.394 0-52.684 20.398-52.684 49.442s22.289 49.442 52.684 49.44c18.508 0 33.097-6.754 42.418-18.912l-20.128-17.966c-5.538 7.023-12.157 11.076-20.668 11.076zm119.691-70.92l-23.1 55.251-22.56-55.251h-34.313l39.986 94.561h31.341l39.985-94.561z" data-original="#000000"/></symbol>
<symbol id="downloadcv" viewBox="0 0 512 512"><path d="M488.388 0H123.957c-8.835 0-15.999 7.164-15.999 15.999v349.335H23.61c-8.835 0-15.999 7.164-15.999 15.999v37.109c0 51.589 41.968 93.557 93.557 93.557h309.664c51.589 0 93.557-41.968 93.557-93.557V15.999C504.388 7.164 497.224 0 488.388 0zm-387.22 480c-33.945 0-61.558-27.613-61.558-61.558v-21.109h277.664v21.109c0 23.55 8.746 45.093 23.16 61.558H101.168zm309.663 0c-33.945 0-61.558-27.613-61.558-61.558v-37.109c0-8.835-7.164-16-16-16H139.956V32h332.433v386.443c0 33.944-27.613 61.557-61.558 61.557z" data-original="#000000"/><path d="M185.655 192.798h65.94c6.629 0 12-5.375 12-12V90.342c0-6.629-5.371-12-12-12h-65.94c-6.629 0-12 5.371-12 12v90.456c0 6.625 5.371 12 12 12zm12-90.456h41.94v66.456h-41.94v-66.456zm92.338 117.655H179.327c-6.629 0-12 5.375-12 12 0 6.629 5.371 12 12 12h110.666c6.629 0 12-5.371 12-12 0-6.625-5.371-12-12-12zm0 45.601H179.327c-6.629 0-12 5.371-12 12 0 6.625 5.371 12 12 12h110.666c6.629 0 12-5.375 12-12 0-6.629-5.371-12-12-12zm0 45.597H179.327c-6.629 0-12 5.375-12 12 0 6.629 5.371 12 12 12h110.666c6.629 0 12-5.371 12-12 0-6.625-5.371-12-12-12zm91.768-180.115c-8.835 0-15.999 7.164-15.999 15.999v15.601c0 8.835 7.164 15.999 15.999 15.999s15.999-7.164 15.999-15.999v-15.601c.001-8.835-7.162-15.999-15.999-15.999zm-.011-7.32c4.242 0 8.32-1.762 11.281-4.719 3.039-2.961 4.719-7.121 4.719-11.281 0-4.242-1.68-8.403-4.719-11.36-5.922-5.922-16.64-5.922-22.558 0-3.043 2.957-4.722 7.117-4.722 11.36 0 4.16 1.68 8.32 4.722 11.281 2.957 2.957 7.038 4.719 11.277 4.719zm40.699 132.822l-24.687 24.691v-74.651c0-8.835-7.164-16-16-16-8.835 0-15.999 7.164-15.999 16v74.651l-24.687-24.683c-6.25-6.25-16.382-6.246-22.624 0-6.25 6.246-6.25 16.378 0 22.629l51.997 51.995c3 3 7.07 4.688 11.313 4.688s8.312-1.688 11.313-4.688l51.999-52.003c6.25-6.25 6.25-16.382 0-22.629s-16.383-6.246-22.625 0z" data-original="#000000"/></symbol>
<symbol id="unittest" viewBox="0 0 24 25"><g fill="#7560E0" fill-rule="evenodd" clip-rule="evenodd"><path d="M2.04 6.695a3.75 3.75 0 0 1 3.75-3.75h8.318a3.75 3.75 0 0 1 3.75 3.75v3.213a.75.75 0 1 1-1.5 0v-2.84H3.54v5.852a2.25 2.25 0 0 0 2.25 2.25H10a.75.75 0 0 1 0 1.5H5.79a3.75 3.75 0 0 1-3.75-3.75z" data-original="#000000"/><path d="M16.203 11.986c-.608 0-1.102.494-1.102 1.102a.04.04 0 0 1-.027.039c-.453.167-.87.41-1.234.713a.04.04 0 0 1-.047.004 1.102 1.102 0 0 0-1.505.404l-.32.553a1.102 1.102 0 0 0 .404 1.505c.013.008.02.023.018.038a4.228 4.228 0 0 0-.002 1.434.034.034 0 0 1-.016.036 1.102 1.102 0 0 0-.404 1.506l.32.553a1.1 1.1 0 0 0 1.505.403.029.029 0 0 1 .033.003 4.19 4.19 0 0 0 1.248.725.041.041 0 0 1 .027.038c0 .61.494 1.103 1.102 1.103h.639c.609 0 1.102-.494 1.102-1.103a.04.04 0 0 1 .027-.038 4.189 4.189 0 0 0 1.239-.716.044.044 0 0 1 .05-.005 1.102 1.102 0 0 0 1.506-.403l.319-.553a1.102 1.102 0 0 0-.403-1.506.047.047 0 0 1-.023-.048 4.22 4.22 0 0 0-.001-1.423.05.05 0 0 1 .023-.05c.528-.305.708-.98.404-1.506l-.32-.554a1.102 1.102 0 0 0-1.505-.403.056.056 0 0 1-.064-.005c-.362-.3-.776-.54-1.225-.706a.04.04 0 0 1-.027-.037c0-.61-.493-1.103-1.102-1.103zm.323 6.797a1.604 1.604 0 1 0 0-3.209 1.604 1.604 0 0 0 0 3.209zM9.042 8.446a.75.75 0 0 1 .075 1.058l-.924 1.063a.25.25 0 0 0 0 .328l.924 1.064a.75.75 0 1 1-1.133.984l-.924-1.064a1.75 1.75 0 0 1 0-2.295l.924-1.064a.75.75 0 0 1 1.058-.074zm1.814 4.55a.75.75 0 0 1-.074-1.058l.924-1.063a.25.25 0 0 0 0-.328l-.924-1.064a.75.75 0 0 1 1.132-.984l.924 1.064a1.75 1.75 0 0 1 0 2.296l-.924 1.063a.75.75 0 0 1-1.058.074z" data-original="#000000"/></g></symbol>
<symbol id="pinia" viewBox="0 0 256 331"><defs><linearGradient id="a" x1="55.34%" x2="42.82%" y1="0%" y2="42.86%"><stop offset="0%" stop-color="#52ce63"/><stop offset="100%" stop-color="#51a256"/></linearGradient><linearGradient id="b" x1="55.35%" x2="42.81%" y1="0%" y2="42.86%"><stop offset="0%" stop-color="#52ce63"/><stop offset="100%" stop-color="#51a256"/></linearGradient><linearGradient id="c" x1="50%" x2="50%" y1="0%" y2="58.81%"><stop offset="0%" stop-color="#8ae99c"/><stop offset="100%" stop-color="#52ce63"/></linearGradient><linearGradient id="d" x1="51.38%" x2="44.59%" y1="17.47%" y2="100%"><stop offset="0%" stop-color="#ffe56c"/><stop offset="100%" stop-color="#ffc63a"/></linearGradient></defs><path fill="url(#a)" d="M67.56 173.328c30.366-2.985 41.08-27.648 44.735-64.823 3.654-37.175-21.174-70.814-31.502-69.799s-43.15 40.322-46.805 77.497c-3.654 37.175 3.205 60.11 33.572 57.125" transform="rotate(-38 72.877 106.136)"/><path fill="url(#b)" d="M184.454 186.277c30.367 2.986 36.394-20.032 32.74-57.207-3.655-37.175-35.645-76.4-45.973-77.415s-35.989 32.542-32.334 69.717 15.201 61.92 45.567 64.905" transform="rotate(52 178.34 119.085)"/><path fill="url(#c)" d="M129.232 151.601c27.341 0 34.878-26.184 34.878-67.013S138.531 3.745 129.232 3.745 93.605 43.758 93.605 84.588c0 40.829 8.286 67.013 35.627 67.013" transform="rotate(7 128.858 77.673)"/><path fill="url(#d)" d="M113.386 330.307c56.896 0 103.038-16.528 103.038-91.482s-46.142-136.462-103.038-136.462c-56.897 0-103.002 61.507-103.002 136.462s46.105 91.482 103.002 91.482"/><ellipse cx="165.43" cy="216.68" fill="#eaadcc" rx="14.72" ry="6.84"/><ellipse cx="57.27" cy="212.57" fill="#eaadcc" rx="14.72" ry="6.84" transform="rotate(7 57.273 212.57)"/><path d="M96.266 210.285a2.054 2.054 0 1 0-3.406 2.295c3.151 4.676 7.997 7.39 14.373 8.119 6.348.725 12.016-.902 16.877-4.852a2.054 2.054 0 1 0-2.59-3.187c-3.999 3.249-8.563 4.559-13.82 3.958-5.23-.598-8.986-2.7-11.434-6.333M65.818 178.63a14.67 14.67 0 0 1 10.551 3.945 14.67 14.67 0 0 1 4.672 10.25 14.67 14.67 0 0 1-3.945 10.55 14.67 14.67 0 0 1-10.25 4.672 14.67 14.67 0 0 1-10.551-3.945 14.67 14.67 0 0 1-4.67-10.25 14.67 14.67 0 0 1 3.944-10.55 14.67 14.67 0 0 1 10.249-4.672"/><path fill="#fff" d="M66.59 190.932a4.792 4.792 0 1 0-9.578.336 4.792 4.792 0 0 0 9.579-.336"/><path d="M154.99 182.366a14.67 14.67 0 0 1 10.552 3.944 14.67 14.67 0 0 1 4.67 10.25 14.67 14.67 0 0 1-3.944 10.551 14.67 14.67 0 0 1-10.25 4.671 14.67 14.67 0 0 1-10.55-3.945 14.67 14.67 0 0 1-4.672-10.25 14.67 14.67 0 0 1 3.945-10.55 14.67 14.67 0 0 1 10.25-4.671"/><path fill="#fff" d="M65.71 175.552c9.824-.343 18.066 7.342 18.409 17.165s-7.342 18.065-17.166 18.408-18.064-7.342-18.407-17.166c-.343-9.823 7.341-18.064 17.164-18.407m12.252 17.38c-.224-6.423-5.613-11.448-12.037-11.223-6.422.224-11.447 5.612-11.222 12.035.224 6.424 5.612 11.448 12.035 11.224s11.448-5.612 11.224-12.036m76.921-13.645c9.824-.343 18.065 7.342 18.408 17.165s-7.342 18.065-17.165 18.408-18.065-7.342-18.408-17.165 7.342-18.065 17.165-18.408m12.251 17.38c-.224-6.423-5.612-11.447-12.036-11.223s-11.448 5.613-11.223 12.036 5.612 11.448 12.035 11.224c6.424-.225 11.448-5.613 11.224-12.037"/><path fill="#fff" d="M155.763 194.668a4.792 4.792 0 1 0-9.578.335 4.792 4.792 0 0 0 9.578-.335"/><path fill="#ecb732" d="M38.083 243.16l22.33 23.235 16.022-17.044a3.765 3.765 0 0 1 5.486 5.157l-16.283 17.324 23.1 24.036a3.765 3.765 0 1 1-5.43 5.218l-22.834-23.761-10.725 11.41a3.765 3.765 0 1 1-5.486-5.158l10.986-11.688-22.595-23.511a3.765 3.765 0 1 1 5.43-5.218m149.956 0a3.765 3.765 0 1 1 5.429 5.218l-22.596 23.511 10.988 11.688a3.765 3.765 0 0 1-.042 5.201l-.123.121a3.765 3.765 0 0 1-5.322-.165l-10.725-11.41-22.834 23.762a3.765 3.765 0 0 1-5.197.222l-.127-.116a3.765 3.765 0 0 1-.105-5.324l23.1-24.036-16.284-17.324a3.765 3.765 0 0 1 .042-5.2l.123-.121a3.765 3.765 0 0 1 5.321.164l16.021 17.044z"/><path fill="#ffc73b" d="M136.602 126.74a3.765 3.765 0 0 1 0 5.323l-17.53 17.531 10.684 10.686a3.765 3.765 0 0 1 .12 5.2l-.12.125a3.765 3.765 0 0 1-5.324 0l-10.686-10.686-10.686 10.686a3.765 3.765 0 1 1-5.324-5.325l10.685-10.686-17.53-17.53a3.765 3.765 0 0 1-.12-5.2l.12-.125a3.765 3.765 0 0 1 5.324 0l17.531 17.53 17.531-17.53a3.765 3.765 0 0 1 5.325 0"/></symbol>
<symbol id="redux" viewBox="0 -6 256 256"><path fill="#764ABC" d="M177.381 169.733c9.447-.978 16.614-9.122 16.288-18.896-.325-9.773-8.47-17.592-18.243-17.592h-.651c-10.1.326-17.918 8.796-17.592 18.895.326 4.887 2.28 9.122 5.212 12.054-11.076 21.828-28.016 37.791-53.426 51.148-17.266 9.122-35.183 12.38-53.1 10.1-14.66-1.955-26.062-8.47-33.23-19.222-10.424-15.963-11.401-33.23-2.605-50.496 6.19-12.38 15.962-21.502 22.152-26.063-1.303-4.235-3.258-11.402-4.235-16.614-47.237 34.207-42.35 80.468-28.016 102.295 10.75 16.29 32.577 26.389 56.684 26.389 6.515 0 13.03-.652 19.546-2.28 41.699-8.145 73.299-32.905 91.216-69.718zm57.336-40.397c-24.759-28.995-61.245-44.958-102.944-44.958h-5.212c-2.932-5.864-9.122-9.774-15.963-9.774h-.652C99.848 74.93 92.03 83.4 92.355 93.5c.326 9.773 8.47 17.592 18.243 17.592h.651c7.167-.326 13.357-4.887 15.963-11.077h5.864c24.759 0 48.214 7.167 69.39 21.176 16.288 10.751 28.016 24.76 34.531 41.7 5.538 13.683 5.212 27.04-.652 38.443-9.121 17.266-24.432 26.714-44.63 26.714-13.031 0-25.41-3.91-31.926-6.842-3.583 3.258-10.099 8.47-14.66 11.729 14.009 6.515 28.343 10.099 42.025 10.099 31.274 0 54.404-17.267 63.2-34.533 9.447-18.896 8.795-51.474-15.637-79.165zM69.225 175.27c.326 9.774 8.47 17.592 18.243 17.592h.652c10.099-.325 17.917-8.796 17.591-18.895-.325-9.774-8.47-17.592-18.243-17.592h-.651c-.652 0-1.63 0-2.28.325-13.357-22.153-18.895-46.26-16.94-72.323 1.302-19.547 7.818-36.488 19.22-50.497 9.447-12.054 27.69-17.918 40.07-18.243 34.531-.652 49.19 42.351 50.168 59.618 4.235.977 11.402 3.258 16.289 4.887C189.434 27.366 156.857 0 125.584 0c-29.32 0-56.359 21.176-67.11 52.451-14.985 41.7-5.212 81.771 13.031 113.372-1.628 2.28-2.606 5.864-2.28 9.448z"/></symbol><symbol id="docker" viewBox="0 0 32 32"><circle cx="16" cy="16" r="14" fill="#1794D4"/><path fill="#fff" d="M18 7h-2v2h2V7zm-8 3h2v2h-2v-2zm-3.998 6.941C6.172 19.843 7.9 24 14 24c6.8 0 9.833-5 10.5-7.5.833 0 2.7-.5 3.5-2.5-.5-.5-2.5-.5-3.5 0 0-.8-.5-2.5-1.5-3-.667.667-1.7 2.4-.5 4-.5 1-1.833 1-2.5 1H6.943c-.53 0-.973.413-.941.941zM9 13H7v2h2v-2z"/><path fill="#fff" d="M10 13h2v2h-2v-2zm5 0h-2v2h2v-2zm1 0h2v2h-2v-2zm5 0h-2v2h2v-2zm-6-3h-2v2h2v-2zm1 0h2v2h-2v-2z"/></symbol>
<symbol id="nuxtjs" viewBox="0 0 24 24"><path d="M19.724 20.272l.023-.045a.74.74 0 0 0 .053-.117l.002-.005a1.16 1.16 0 0 0 .054-.607l.001.007a1.795 1.795 0 0 0-.235-.623l.005.008-5.317-9.353-.812-1.42-.807 1.42-5.314 9.353a1.85 1.85 0 0 0-.204.604l-.001.011a1.257 1.257 0 0 0 .08.713l-.003-.008a.809.809 0 0 0 .05.102l-.002-.004c.16.275.5.602 1.25.602h9.898c.157 0 .925-.032 1.28-.637zm-6.227-9.316l4.859 8.548H8.64zm10.249 7.934L16.73 6.53c-.072-.13-.477-.787-1.182-.787-.317 0-.772.135-1.142.785l-.907 1.59.807 1.42 1.25-2.212 6.941 12.18h-2.64a1.187 1.187 0 0 1-.058.608l.003-.008a.772.772 0 0 1-.057.126l.002-.004-.023.045c-.355.605-1.122.637-1.272.637h4.129c.152 0 .917-.032 1.272-.637.157-.275.27-.737-.107-1.382zM7.304 20.307a.989.989 0 0 1-.045-.092l-.002-.006a1.228 1.228 0 0 1-.084-.712l-.001.007H1.501L9.93 4.672l2.767 4.864.802-1.42-2.412-4.249c-.067-.122-.475-.777-1.177-.777-.317 0-.772.137-1.142.787L.23 18.889c-.072.13-.425.812-.075 1.417.16.275.5.602 1.25.602h7.151c-.745 0-1.09-.322-1.25-.602z"/></symbol>
<symbol id="tailwindcss" viewBox="0 0 128 128"><path fill="#38bdf8" d="M64.004 25.602c-17.067 0-27.73 8.53-32 25.597 6.398-8.531 13.867-11.73 22.398-9.597 4.871 1.214 8.352 4.746 12.207 8.66C72.883 56.629 80.145 64 96.004 64c17.066 0 27.73-8.531 32-25.602-6.399 8.536-13.867 11.735-22.399 9.602-4.87-1.215-8.347-4.746-12.207-8.66-6.27-6.367-13.53-13.738-29.394-13.738zM32.004 64c-17.066 0-27.73 8.531-32 25.602C6.402 81.066 13.87 77.867 22.402 80c4.871 1.215 8.352 4.746 12.207 8.66 6.274 6.367 13.536 13.738 29.395 13.738 17.066 0 27.73-8.53 32-25.597-6.399 8.531-13.867 11.73-22.399 9.597-4.87-1.214-8.347-4.746-12.207-8.66C55.128 71.371 47.868 64 32.004 64zm0 0"/></symbol>
<symbol id="bootstrap" viewBox="0 0 256 256"><path fill="#563D7C" d="M0 222.991C0 241.223 14.779 256 33.009 256H222.99c18.233 0 33.01-14.779 33.01-33.009V33.01C256 14.777 241.221 0 222.991 0H33.01C14.777 0 0 14.779 0 33.009V222.99z"/><path fill="#FFF" d="M106.158 113.238V76.985h31.911c3.04 0 5.97.253 8.792.76 2.822.506 5.319 1.41 7.49 2.713 2.17 1.303 3.907 3.112 5.21 5.427 1.302 2.316 1.954 5.283 1.954 8.9 0 6.513-1.954 11.217-5.862 14.111-3.907 2.895-8.9 4.342-14.979 4.342h-34.516zM72.075 50.5v155h75.112c6.947 0 13.713-.868 20.298-2.605 6.585-1.737 12.446-4.414 17.584-8.032 5.137-3.618 9.226-8.286 12.265-14.002 3.04-5.717 4.559-12.483 4.559-20.298 0-9.697-2.352-17.982-7.055-24.856-4.704-6.875-11.832-11.687-21.384-14.437 6.947-3.328 12.194-7.598 15.74-12.808 3.545-5.21 5.318-11.722 5.318-19.538 0-7.236-1.194-13.314-3.582-18.235-2.388-4.92-5.753-8.864-10.095-11.831-4.341-2.967-9.551-5.102-15.63-6.404-6.078-1.303-12.808-1.954-20.189-1.954H72.075zm34.083 128.515v-42.549h37.121c7.381 0 13.315 1.7 17.802 5.102 4.486 3.401 6.73 9.081 6.73 17.041 0 4.053-.688 7.381-2.063 9.986-1.375 2.605-3.22 4.668-5.536 6.187-2.315 1.52-4.993 2.605-8.032 3.257-3.04.65-6.223.976-9.552.976h-36.47z"/></symbol><symbol id="css" viewBox="0 0 32 32"><path fill="#1572b6" d="M5.9 27.2L3.66 2h24.68l-2.25 25.2L15.98 30 5.9 27.2z"/><path fill="#33a9dc" d="M16 27.86l8.17-2.27 1.92-21.53H16v23.8z"/><path fill="#fff" d="M16 13.19h4.09l.28-3.16H16v-3.1h7.75l-.07.83-.76 8.52H16v-3.09z"/><path fill="#ebebeb" d="M16.02 21.22H16l-3.44-.93-.22-2.46h-3.1l.43 4.85L16 24.44l.02-.01v-3.21z"/><path fill="#fff" d="M19.83 16.15l-.38 4.14-3.44.93v3.22l6.33-1.76.05-.52.54-6.01h-3.1z"/><path fill="#ebebeb" d="M16.01 6.93v3.1H8.54l-.06-.7-.14-1.57-.07-.83h7.74zM16 13.19v3.09h-3.4l-.06-.69-.14-1.57-.08-.83H16z"/></symbol><symbol id="html" viewBox="0 0 32 32"><path fill="#e44f26" d="M5.9 27.2L3.65 2h24.69l-2.25 25.2L15.98 30 5.9 27.2z"/><path fill="#f1662a" d="M16 27.86l8.17-2.27 1.92-21.53H16v23.8z"/><path fill="#ebebeb" d="M16 13.41h-4.09l-.28-3.17H16V7.15H8.25l.07.83.76 8.52H16v-3.09zm0 8.02l-.01.01-3.45-.93-.22-2.47h-3.1l.43 4.86 6.34 1.75H16v-3.22z"/><path fill="#fff" d="M15.99 13.41v3.09h3.81l-.36 4.01-3.45.93v3.21l6.34-1.75.04-.53.73-8.13.07-.83h-7.18zm0-6.26v3.09h7.46l.07-.69.14-1.57.07-.83h-7.74z"/></symbol><symbol id="git" viewBox="0 -.5 48 48"><path fill="#3E75C3" fill-rule="evenodd" d="M23.999 0C10.746 0 0 10.787 0 24.097 0 34.74 6.876 43.772 16.414 46.958c1.2.222 1.639-.522 1.639-1.16 0-.573-.021-2.088-.034-4.098-6.676 1.456-8.085-3.23-8.085-3.23-1.09-2.784-2.664-3.525-2.664-3.525-2.179-1.495.166-1.465.166-1.465 2.407.17 3.675 2.483 3.675 2.483 2.142 3.683 5.617 2.62 6.985 2.002.217-1.557.838-2.619 1.524-3.221-5.33-.609-10.932-2.675-10.932-11.908 0-2.63.934-4.781 2.47-6.466-.247-.61-1.07-3.059.235-6.377 0 0 2.016-.647 6.6 2.47 1.915-.534 3.967-.801 6.008-.811 2.039.01 4.092.277 6.01.811 4.58-3.117 6.592-2.47 6.592-2.47 1.31 3.318.486 5.767.238 6.377 1.54 1.685 2.468 3.835 2.468 6.466 0 9.256-5.612 11.293-10.958 11.89.861.744 1.63 2.213 1.63 4.462 0 3.22-.03 5.819-.03 6.61 0 .644.432 1.394 1.65 1.157C41.13 43.763 48 34.738 48 24.097 48 10.787 37.254 0 23.999 0"/></symbol><symbol id="express" viewBox="-3.8 -1.5 40.92 40.92"><defs><linearGradient id="b" x1="271.97" x2="211.1" y1="217.61" y2="341.77" gradientUnits="userSpaceOnUse"><stop offset=".3" stop-color="#3e863d"/><stop offset=".5" stop-color="#55934f"/><stop offset=".8" stop-color="#5aad45"/></linearGradient><linearGradient id="d" x1="186.48" x2="297.35" y1="321.38" y2="239.47" gradientUnits="userSpaceOnUse"><stop offset=".57" stop-color="#3e863d"/><stop offset=".72" stop-color="#619857"/><stop offset="1" stop-color="#76ac64"/></linearGradient><linearGradient id="f" x1="197.05" x2="288.72" y1="279.65" y2="279.65" gradientUnits="userSpaceOnUse"><stop offset=".16" stop-color="#6bbf47"/><stop offset=".38" stop-color="#79b461"/><stop offset=".47" stop-color="#75ac64"/><stop offset=".7" stop-color="#659e5a"/><stop offset=".9" stop-color="#3e863d"/></linearGradient><clipPath id="a"><path d="M239.03 226.605l-42.13 24.317a5.085 5.085 0 0 0-2.546 4.406v48.668c0 1.817.968 3.496 2.546 4.406l42.133 24.336a5.1 5.1 0 0 0 5.09 0l42.126-24.336a5.096 5.096 0 0 0 2.54-4.406v-48.668c0-1.816-.97-3.496-2.55-4.406l-42.12-24.317a5.123 5.123 0 0 0-5.1 0"/></clipPath><clipPath id="c"><path d="M195.398 307.086c.403.523.907.976 1.5 1.316l36.14 20.875 6.02 3.46c.9.52 1.926.74 2.934.665.336-.027.672-.09 1-.183l44.434-81.36c-.34-.37-.738-.68-1.184-.94l-27.586-15.93-14.582-8.39a5.318 5.318 0 0 0-1.32-.53zm0 0"/></clipPath><clipPath id="e"><path d="M241.066 225.953a5.14 5.14 0 0 0-2.035.652l-42.01 24.247 45.3 82.51c.63-.09 1.25-.3 1.81-.624l42.13-24.336a5.105 5.105 0 0 0 2.46-3.476l-46.18-78.89a5.29 5.29 0 0 0-1.03-.102l-.42.02"/></clipPath></defs><g clip-path="url(#a)" transform="translate(-68.564 -79.701) scale(.35278)"><path fill="url(#b)" d="M331.363 246.793l-118.715-58.19-60.87 124.174L270.49 370.97zm0 0"/></g><g clip-path="url(#c)" transform="translate(-68.564 -79.701) scale(.35278)"><path fill="url(#d)" d="M144.07 264.004l83.825 113.453 110.86-81.906-83.83-113.45zm0 0"/></g><g clip-path="url(#e)" transform="translate(-68.564 -79.701) scale(.35278)"><path fill="url(#f)" d="M197.02 225.934v107.43h91.683v-107.43zm0 0"/></g></symbol><symbol id="js" viewBox="0 0 32 32"><path fill="#FFCA28" d="M2 2h28v28H2z"/><path fill="#3E3E3E" d="M19 25.288l2.061-1.364c.162.507 1.185 1.713 2.477 1.713 1.293 0 1.893-.706 1.893-1.174 0-1.275-1.32-1.725-1.954-1.94a3.689 3.689 0 0 1-.246-.09 3.68 3.68 0 0 0-.133-.053c-.705-.269-3.306-1.262-3.306-4.143 0-3.172 3.062-3.537 3.754-3.537.453 0 2.63.056 3.716 2.094l-2 1.396c-.439-.889-1.167-1.182-1.616-1.182-1.108 0-1.338.812-1.338 1.182 0 1.037 1.203 1.502 2.22 1.894.265.103.518.2.734.303 1.107.523 2.738 1.38 2.738 4.076C28 25.813 26.867 28 24.015 28c-3.83 0-4.846-2.3-5.015-2.712zm-10 .271l2.149-1.364c.168.508.822 1.443 1.772 1.443.949 0 1.435-.975 1.435-1.443V15h2.642v9.195c.043 1.269-.66 3.805-3.765 3.805-2.853 0-4.04-1.696-4.233-2.44z"/></symbol><symbol id="react" viewBox="0 0 32 32"><path fill="#53C1DE" d="M18.679 15.976c0-1.435-1.2-2.598-2.679-2.598-1.48 0-2.679 1.163-2.679 2.598 0 1.434 1.2 2.597 2.679 2.597 1.48 0 2.679-1.163 2.679-2.597z"/><path fill="#53C1DE" fill-rule="evenodd" d="M24.7 11.154c.566-2.23 1.277-6.363-1.23-7.764-2.495-1.395-5.742 1.278-7.456 2.883-1.71-1.589-5.048-4.25-7.552-2.845-2.494 1.4-1.725 5.465-1.147 7.708-2.327.64-6.315 2.02-6.315 4.84 0 2.811 3.984 4.313 6.297 4.953-.58 2.255-1.311 6.262 1.186 7.659 2.514 1.405 5.842-1.194 7.572-2.816 1.726 1.614 4.942 4.23 7.437 2.83 2.504-1.406 1.852-5.484 1.273-7.74 2.242-.641 6.235-2.11 6.235-4.886 0-2.793-4.01-4.184-6.3-4.822zm-.284 8.513a28.65 28.65 0 0 0-1.519-3.685 28.625 28.625 0 0 0 1.46-3.631c1.679.472 5.361 1.55 5.361 3.625 0 2.094-3.533 3.183-5.302 3.691zm-1.566 7.859c-1.862 1.045-4.628-1.456-5.902-2.645a29.352 29.352 0 0 0 2.514-3.096 30.941 30.941 0 0 0 4.064-.607c.407 1.595 1.194 5.298-.676 6.348zm-13.726-.015c-1.863-1.041-1.011-4.616-.584-6.278a31.04 31.04 0 0 0 4.042.568 30.55 30.55 0 0 0 2.576 3.085c-1.083 1.015-4.163 3.671-6.034 2.625zM2.28 15.976c0-2.102 3.661-3.173 5.378-3.643a29.257 29.257 0 0 0 1.462 3.673 29.689 29.689 0 0 0-1.48 3.726c-1.637-.454-5.36-1.653-5.36-3.756zM9.104 4.504c1.87-1.05 4.77 1.506 6.012 2.656a29.97 29.97 0 0 0-2.556 3.066c-1.41.127-2.761.33-4.003.604-.466-1.81-1.321-5.278.547-6.326zm11.275 7.073c.957.117 1.875.273 2.736.464a26.259 26.259 0 0 1-.96 2.504 41.165 41.165 0 0 0-1.776-2.968zm-4.365-3.529a26.999 26.999 0 0 1 1.766 2.066 38.897 38.897 0 0 0-3.546 0 27.651 27.651 0 0 1 1.78-2.066zm-6.157 6.496a26.884 26.884 0 0 1-.954-2.517 29.762 29.762 0 0 1 2.72-.452 36.303 36.303 0 0 0-1.766 2.97zm1.793 5.922a28.076 28.076 0 0 1-2.764-.431c.264-.83.59-1.692.972-2.568a36.306 36.306 0 0 0 1.792 2.999zm4.4 3.525a28.142 28.142 0 0 1-1.805-2.094c1.188.045 2.378.045 3.566-.006a26.611 26.611 0 0 1-1.761 2.1zm6.117-6.569c.4.886.739 1.744 1.007 2.559a27.97 27.97 0 0 1-2.798.462 41.028 41.028 0 0 0 1.79-3.02zm-3.42 3.172a41.486 41.486 0 0 1-5.463.01 34.923 34.923 0 0 1-2.746-4.598 34.908 34.908 0 0 1 2.73-4.59 37.39 37.39 0 0 1 5.469 0 39.137 39.137 0 0 1 2.739 4.572 39.146 39.146 0 0 1-2.729 4.606zM22.83 4.467c1.87 1.046 1.038 4.76.63 6.376a31.597 31.597 0 0 0-4.012-.615 29.379 29.379 0 0 0-2.536-3.069c1.258-1.175 4.066-3.728 5.918-2.692z" clip-rule="evenodd"/></symbol><symbol id="mongodb" viewBox="0 0 1024 1024"><circle cx="512" cy="512" r="512" fill="#13aa52"/><path fill="#fff" d="M648.86 449.44c-32.34-142.73-108.77-189.66-117-207.59-9-12.65-18.12-35.15-18.12-35.15-.15-.38-.39-1.05-.67-1.7-.93 12.65-1.41 17.53-13.37 30.29-18.52 14.48-113.54 94.21-121.27 256.37-7.21 151.24 109.25 241.36 125 252.85l1.79 1.27v-.11c.1.76 5 36 8.44 73.34H526a726.68 726.68 0 0 1 13-78.53l1-.65a204.48 204.48 0 0 0 20.11-16.45l.72-.65c33.48-30.93 93.67-102.47 93.08-216.53a347.07 347.07 0 0 0-5.05-56.76zM512.35 659.12s0-212.12 7-212.08c5.46 0 12.53 273.61 12.53 273.61-9.72-1.17-19.53-45.03-19.53-61.53z"/></symbol><symbol id="sass" viewBox="0 0 32 32"><path fill="#cd6799" d="M26.11 17.572a5.8 5.8 0 0 0-2.537.588 5.345 5.345 0 0 1-.568-1.314 3.53 3.53 0 0 1-.051-1.1 9.811 9.811 0 0 1 .332-1.192c-.005-.051-.061-.292-.624-.3s-1.048.107-1.1.256a6.171 6.171 0 0 0-.235.834 19.686 19.686 0 0 1-1.713 3.294 3.186 3.186 0 0 1-.44-2.066 9.811 9.811 0 0 1 .332-1.192c-.005-.051-.061-.292-.624-.3s-1.048.107-1.1.256-.118.5-.235.834-1.483 3.386-1.841 4.173c-.184.4-.343.726-.455.946a.233.233 0 0 1-.02.041l-.153.292v.005c-.077.138-.159.266-.2.266a1.711 1.711 0 0 1 .01-.869c.2-1.059.69-2.705.685-2.762 0-.031.092-.317-.317-.465a.508.508 0 0 0-.578.1c-.036 0-.061.087-.061.087s.445-1.851-.849-1.851a3.855 3.855 0 0 0-2.475 1.683c-.348.189-1.089.593-1.882 1.028-.3.169-.614.338-.905.5-.02-.02-.041-.046-.061-.066C6.87 17.6 3.975 16.416 4.1 14.171c.046-.818.327-2.966 5.559-5.575 4.306-2.122 7.733-1.534 8.326-.23.849 1.862-1.836 5.319-6.285 5.82a3.351 3.351 0 0 1-2.813-.711c-.235-.256-.271-.271-.358-.22-.143.077-.051.307 0 .44a2.626 2.626 0 0 0 1.606 1.263 8.55 8.55 0 0 0 5.217-.517c2.7-1.043 4.8-3.943 4.184-6.372-.619-2.465-4.71-3.278-8.582-1.9a19.5 19.5 0 0 0-6.595 3.783c-2.133 1.995-2.47 3.728-2.332 4.455.5 2.578 4.051 4.255 5.472 5.5a8.554 8.554 0 0 1-.194.107c-.711.353-3.421 1.77-4.1 3.268-.767 1.7.123 2.915.711 3.079a4.374 4.374 0 0 0 4.71-1.908 4.725 4.725 0 0 0 .423-4.353.107.107 0 0 0-.02-.031l.557-.327a27.2 27.2 0 0 1 1.028-.578 6.74 6.74 0 0 0-.363 1.862 3.886 3.886 0 0 0 .834 2.7.921.921 0 0 0 .675.22c.6 0 .875-.5 1.176-1.094.368-.726.7-1.57.7-1.57s-.414 2.281.711 2.281c.409 0 .823-.532 1.008-.8v.005l.031-.051.066-.107v-.01c.164-.286.532-.936 1.079-2.015.706-1.391 1.386-3.13 1.386-3.13a8.888 8.888 0 0 0 .271 1.13 10.643 10.643 0 0 0 .583 1.309c-.164.23-.266.358-.266.358l.005.005c-.133.174-.276.363-.435.547a16.3 16.3 0 0 0-1.314 1.647.447.447 0 0 0 .123.6 1.116 1.116 0 0 0 .685.113 3.147 3.147 0 0 0 1.028-.235 3.45 3.45 0 0 0 .885-.465 1.98 1.98 0 0 0 .849-1.744 3.521 3.521 0 0 0-.322-1.233c.051-.072.1-.143.148-.215a23.428 23.428 0 0 0 1.534-2.649 8.888 8.888 0 0 0 .271 1.13 7.57 7.57 0 0 0 .5 1.125 4.861 4.861 0 0 0-1.497 1.922c-.322.931-.072 1.35.4 1.447a1.425 1.425 0 0 0 .747-.153 3.4 3.4 0 0 0 .946-.486 2.126 2.126 0 0 0 1.043-1.729 3.268 3.268 0 0 0-.235-1.023 5.356 5.356 0 0 1 2.716-.312c2.434.286 2.915 1.805 2.823 2.445a1.618 1.618 0 0 1-.772 1.094c-.169.107-.225.143-.21.22.02.113.1.107.245.087A1.9 1.9 0 0 0 30 20.7c.077-1.5-1.355-3.145-3.887-3.13zM7.33 23.9c-.808.88-1.933 1.212-2.419.931-.522-.3-.317-1.6.675-2.532a12.884 12.884 0 0 1 1.9-1.417c.118-.072.292-.174.5-.3l.056-.031.123-.077A3.493 3.493 0 0 1 7.33 23.9zm5.881-4c-.281.685-.869 2.44-1.227 2.342-.307-.082-.5-1.412-.061-2.726a6.193 6.193 0 0 1 .956-1.754c.44-.491.926-.655 1.043-.455a9.062 9.062 0 0 1-.711 2.593zm4.853 2.322c-.118.061-.23.1-.281.072-.036-.02.051-.1.051-.1s.609-.655.849-.951c.138-.174.3-.378.476-.609v.066c0 .782-.757 1.309-1.094 1.524zm3.744-.854c-.087-.061-.072-.266.22-.905a3.408 3.408 0 0 1 .834-1.074 1.448 1.448 0 0 1 .082.471 1.547 1.547 0 0 1-1.135 1.509z"/></symbol><symbol id="typescript" viewBox="0 0 32 32"><rect width="28" height="28" x="2" y="2" fill="#3178c6" rx="1.31"/><path fill="#fff" fill-rule="evenodd" d="M18.245 23.759v3.068a6.492 6.492 0 0 0 1.764.575 11.56 11.56 0 0 0 2.146.192 9.968 9.968 0 0 0 2.088-.211 5.11 5.11 0 0 0 1.735-.7 3.542 3.542 0 0 0 1.181-1.266 4.469 4.469 0 0 0 .186-3.394 3.409 3.409 0 0 0-.717-1.117 5.236 5.236 0 0 0-1.123-.877 12.027 12.027 0 0 0-1.477-.734q-.6-.249-1.08-.484a5.5 5.5 0 0 1-.813-.479 2.089 2.089 0 0 1-.516-.518 1.091 1.091 0 0 1-.181-.618 1.039 1.039 0 0 1 .162-.571 1.4 1.4 0 0 1 .459-.436 2.439 2.439 0 0 1 .726-.283 4.211 4.211 0 0 1 .956-.1 5.942 5.942 0 0 1 .808.058 6.292 6.292 0 0 1 .856.177 5.994 5.994 0 0 1 .836.3 4.657 4.657 0 0 1 .751.422V13.9a7.509 7.509 0 0 0-1.525-.4 12.426 12.426 0 0 0-1.9-.129 8.767 8.767 0 0 0-2.064.235 5.239 5.239 0 0 0-1.716.733 3.655 3.655 0 0 0-1.171 1.271 3.731 3.731 0 0 0-.431 1.845 3.588 3.588 0 0 0 .789 2.34 6 6 0 0 0 2.395 1.639q.63.26 1.175.509a6.458 6.458 0 0 1 .942.517 2.463 2.463 0 0 1 .626.585 1.2 1.2 0 0 1 .23.719 1.1 1.1 0 0 1-.144.552 1.269 1.269 0 0 1-.435.441 2.381 2.381 0 0 1-.726.292 4.377 4.377 0 0 1-1.018.105 5.773 5.773 0 0 1-1.969-.35 5.874 5.874 0 0 1-1.805-1.045zm-5.154-7.638h4v-2.527H5.938v2.527H9.92v11.254h3.171z"/></symbol><symbol id="vue" viewBox="0 0 32 32"><path fill="#41B883" d="M2 4l14 24L30 4h-5.5L16 18.5 7.5 4H2z"/><path fill="#35495E" d="M7.5 4L16 18.5 24.5 4h-5l-3.435 6.013L12.5 4h-5z"/></symbol><symbol id="nextjs" viewBox="0 0 128 128"><path d="M64 0C28.7 0 0 28.7 0 64s28.7 64 64 64c11.2 0 21.7-2.9 30.8-7.9L48.4 55.3v36.6h-6.8V41.8h6.8l50.5 75.8C116.4 106.2 128 86.5 128 64c0-35.3-28.7-64-64-64zm22.1 84.6l-7.5-11.3V41.8h7.5v42.8z"/></symbol><symbol id="nodejs" viewBox="0 0 32 32"><path fill="#8CC84B" d="M17.172 2.299a2.452 2.452 0 0 0-2.345 0L4.152 8.189C3.46 8.553 2.992 9.297 3 10.07v11.864c-.005.787.486 1.538 1.197 1.897 1.022.544 2.015 1.143 3.055 1.65 1.203.59 2.706.721 3.923.105.988-.51 1.427-1.646 1.425-2.689.008-3.915.002-7.83.003-11.746.024-.174-.107-.36-.297-.356-.454-.007-.91-.004-1.364-.001-.172-.017-.34.126-.327.299-.006 3.89.001 7.781-.004 11.672a1.318 1.318 0 0 1-.872 1.237c-1.198.42-4.617-1.8-4.617-1.8a.337.337 0 0 1-.193-.33V10.13a.362.362 0 0 1 .225-.365c3.546-1.952 7.09-3.908 10.637-5.862a.384.384 0 0 1 .418.001c3.546 1.953 7.091 3.908 10.638 5.86a.366.366 0 0 1 .224.366c0 3.913.001 7.828-.001 11.741a.337.337 0 0 1-.19.334c-3.514 1.941-7.067 3.82-10.549 5.818-.151.087-.323.186-.494.09-.915-.507-1.82-1.033-2.732-1.544-.1-.062-.226-.089-.33-.02-.408.216-.793.39-1.263.577-.66.261-.554.368.04.714 1.068.604 2.137 1.206 3.204 1.81.703.439 1.646.47 2.372.065 3.558-1.961 7.116-3.925 10.675-5.886.708-.361 1.202-1.109 1.197-1.896V10.069c.007-.756-.442-1.487-1.114-1.856-3.57-1.974-7.142-3.942-10.713-5.914z"/><path fill="#8CC84B" d="M22.542 11.206c-1.397-.747-3.058-.787-4.61-.69-1.122.112-2.301.421-3.118 1.225-.838.808-1.02 2.113-.622 3.168.285.745 1.003 1.23 1.745 1.486.957.338 1.96.442 2.966.546.916.096 1.833.19 2.713.463.36.12.78.302.89.693.101.464-.01 1.003-.387 1.325-1.195.946-4.521.801-5.702.056-.478-.317-.684-.879-.768-1.414-.009-.167-.143-.32-.324-.307a68.556 68.556 0 0 0-1.36 0c-.159-.014-.323.099-.332.26-.093 2.452 2.158 3.52 4.27 3.756 1.208.115 2.441.108 3.63-.15.893-.204 1.789-.579 2.404-1.267.758-.836.907-2.081.567-3.123-.26-.777-1.003-1.276-1.762-1.532-1.033-.354-2.258-.545-3.193-.634-1.36-.13-2.976-.076-3.361-.97-.153-.468-.023-1.049.407-1.337 1.138-.771 3.453-.669 4.632-.092.54.27.854.827.983 1.389.024.165.135.337.326.33.45.008.901.002 1.351.002.155.011.325-.076.355-.234-.02-1.174-.619-2.376-1.7-2.949z"/></symbol>
<symbol id="dark-mode" viewBox="0 0 32 32"><path d="M28.83 22.32A13.93 13.93 0 1 1 9.68 3.17a1.07 1.07 0 0 1 1.47 1.49 11.78 11.78 0 0 0 16.19 16.19 1.07 1.07 0 0 1 1.49 1.47z" data-original="#000000"/></symbol><symbol id="light-mode" viewBox="0 0 24 24"><circle cx="12" cy="12" r="6" data-original="#000000"/><path d="M12 4.5c.28 0 .5-.22.5-.5V2c0-.28-.22-.5-.5-.5s-.5.22-.5.5v2c0 .28.22.5.5.5zm0 15c-.28 0-.5.22-.5.5v2c0 .28.22.5.5.5s.5-.22.5-.5v-2c0-.28-.22-.5-.5-.5zm10-8h-2c-.28 0-.5.22-.5.5s.22.5.5.5h2c.28 0 .5-.22.5-.5s-.22-.5-.5-.5zm-18 0H2c-.28 0-.5.22-.5.5s.22.5.5.5h2c.28 0 .5-.22.5-.5s-.22-.5-.5-.5zm13.66-4.66c.13 0 .26-.05.35-.15l1.41-1.41c.2-.2.2-.51 0-.71s-.51-.2-.71 0L17.3 5.98c-.2.2-.2.51 0 .71.1.1.23.15.35.15zM5.99 17.3l-1.41 1.41c-.2.2-.2.51 0 .71a.485.485 0 0 0 .7 0l1.41-1.41c.2-.2.2-.51 0-.71s-.51-.2-.71 0zm12.02 0c-.2-.2-.51-.2-.71 0s-.2.51 0 .71l1.41 1.41a.485.485 0 0 0 .7 0c.2-.2.2-.51 0-.71L18 17.3zM5.99 6.7a.485.485 0 0 0 .7 0c.2-.2.2-.51 0-.71L5.28 4.58c-.2-.2-.51-.2-.71 0s-.2.51 0 .71L5.98 6.7z" data-original="#000000"/></symbol><symbol id="logo-large" viewBox="0 0 20 32">
<path d="M12.768 0l-8.88 18.835h1.952c0.29 0 0.394-0.608 9.494-18.835h4.397c-9.965 19.004-10.868 19.769-10.868 19.769l0.486 0.788 0.381 0.701 5.905 10.742s-3.918-5.707-6.312-8.301c-1.242-1.241-2.062-2.518-3.791 0s-5.532 8.301-5.532 8.301v0-32.001z"></path>
</symbol><symbol id="logo-small" viewBox="0 0 20 32">
<path d="M12.768 0l-8.88 18.835h1.952c0.29 0 0.395-0.608 9.494-18.835h4.397c-9.965 19.004-10.868 19.769-10.868 19.769l0.486 0.789 0.381 0.701 5.905 10.74s-3.918-5.706-6.311-8.3c-1.242-1.242-2.061-2.518-3.791 0s-5.533 8.3-5.533 8.3v0-32z"></path>
</symbol><symbol id="github" viewBox="0 0 24 24"><path d="M12 .5C5.37.5 0 5.78 0 12.292c0 5.211 3.438 9.63 8.205 11.188.6.111.82-.254.82-.567 0-.28-.01-1.022-.015-2.005-3.338.711-4.042-1.582-4.042-1.582-.546-1.361-1.335-1.725-1.335-1.725-1.087-.731.084-.716.084-.716 1.205.082 1.838 1.215 1.838 1.215 1.07 1.803 2.809 1.282 3.495.981.108-.763.417-1.282.76-1.577-2.665-.295-5.466-1.309-5.466-5.827 0-1.287.465-2.339 1.235-3.164-.135-.298-.54-1.497.105-3.121 0 0 1.005-.316 3.3 1.209.96-.262 1.98-.392 3-.398 1.02.006 2.04.136 3 .398 2.28-1.525 3.285-1.209 3.285-1.209.645 1.624.24 2.823.12 3.121.765.825 1.23 1.877 1.23 3.164 0 4.53-2.805 5.527-5.475 5.817.42.354.81 1.077.81 2.182 0 1.578-.015 2.846-.015 3.229 0 .309.21.678.825.56C20.565 21.917 24 17.495 24 12.292 24 5.78 18.627.5 12 .5z" data-original="#000000"/></symbol><symbol id="whatsapp" viewBox="0 0 512 512"><path d="M256 0C114.62 0 0 114.62 0 256s114.62 256 256 256 256-114.62 256-256S397.38 0 256 0zm3.35 402.4h-.06c-25.05 0-49.66-6.29-71.51-18.21L108.44 405l21.24-77.55c-13.1-22.69-19.99-48.44-19.98-74.81.03-82.51 67.16-149.64 149.65-149.64 40.03.02 77.61 15.6 105.86 43.89 28.25 28.28 43.81 65.88 43.79 105.87-.03 82.51-67.17 149.64-149.65 149.64zm.05-274.13c-68.61 0-124.41 55.8-124.43 124.38-.01 23.5 6.56 46.39 19.01 66.19l2.96 4.71-12.56 45.9 47.07-12.35 4.54 2.69c19.1 11.34 40.99 17.33 63.31 17.34h.05c68.56 0 124.36-55.8 124.38-124.38.02-33.24-12.91-64.49-36.39-88-23.49-23.51-54.72-36.46-87.94-36.48zm73.16 177.85c-3.11 8.74-18.05 16.71-25.24 17.78-6.44.97-14.59 1.37-23.55-1.48-5.43-1.72-12.39-4.02-21.31-7.87-37.51-16.2-62.01-53.97-63.88-56.47-1.87-2.49-15.27-20.27-15.27-38.68 0-18.4 9.66-27.45 13.09-31.19 3.43-3.74 7.48-4.68 9.97-4.68s4.99.02 7.17.13c2.29.12 5.37-.87 8.41 6.42 3.11 7.49 10.59 25.89 11.53 27.77.93 1.87 1.56 4.05.31 6.55-1.25 2.49-1.87 4.05-3.74 6.23-1.87 2.19-3.93 4.88-5.61 6.56-1.87 1.86-3.82 3.88-1.64 7.63 2.18 3.74 9.69 15.98 20.8 25.9 14.29 12.74 26.33 16.69 30.07 18.56 3.74 1.87 5.92 1.56 8.1-.94 2.19-2.49 9.35-10.92 11.84-14.66 2.5-3.74 4.99-3.12 8.42-1.87 3.42 1.25 21.81 10.29 25.55 12.17 3.74 1.87 6.23 2.8 7.16 4.36.94 1.56.94 9.05-2.18 17.78z" data-original="#000000"/></symbol><symbol id="linkedin" viewBox="0 0 512 512"><path d="M256 0C114.637 0 0 114.637 0 256s114.637 256 256 256 256-114.637 256-256S397.363 0 256 0zm-74.39 387h-62.348V199.426h62.347zm-31.173-213.188h-.406c-20.922 0-34.453-14.402-34.453-32.402 0-18.406 13.945-32.41 35.274-32.41 21.328 0 34.453 14.004 34.859 32.41 0 18-13.531 32.403-35.274 32.403zM406.423 387h-62.34V286.652c0-25.218-9.027-42.418-31.586-42.418-17.223 0-27.48 11.602-31.988 22.801-1.649 4.008-2.051 9.61-2.051 15.215V387h-62.344s.817-169.977 0-187.574h62.344v26.558c8.285-12.78 23.11-30.96 56.188-30.96 41.02 0 71.777 26.808 71.777 84.421zm0 0" data-original="#000000"/></symbol></svg>
