<svg xmlns="http://www.w3.org/2000/svg"><symbol id="dark-mode" viewBox="0 0 32 32"><path d="M28.83 22.32A13.93 13.93 0 1 1 9.68 3.17a1.07 1.07 0 0 1 1.47 1.49 11.78 11.78 0 0 0 16.19 16.19 1.07 1.07 0 0 1 1.49 1.47z" data-original="#000000"/></symbol><symbol id="light-mode" viewBox="0 0 24 24"><circle cx="12" cy="12" r="6" data-original="#000000"/><path d="M12 4.5c.28 0 .5-.22.5-.5V2c0-.28-.22-.5-.5-.5s-.5.22-.5.5v2c0 .28.22.5.5.5zm0 15c-.28 0-.5.22-.5.5v2c0 .28.22.5.5.5s.5-.22.5-.5v-2c0-.28-.22-.5-.5-.5zm10-8h-2c-.28 0-.5.22-.5.5s.22.5.5.5h2c.28 0 .5-.22.5-.5s-.22-.5-.5-.5zm-18 0H2c-.28 0-.5.22-.5.5s.22.5.5.5h2c.28 0 .5-.22.5-.5s-.22-.5-.5-.5zm13.66-4.66c.13 0 .26-.05.35-.15l1.41-1.41c.2-.2.2-.51 0-.71s-.51-.2-.71 0L17.3 5.98c-.2.2-.2.51 0 .71.1.1.23.15.35.15zM5.99 17.3l-1.41 1.41c-.2.2-.2.51 0 .71a.485.485 0 0 0 .7 0l1.41-1.41c.2-.2.2-.51 0-.71s-.51-.2-.71 0zm12.02 0c-.2-.2-.51-.2-.71 0s-.2.51 0 .71l1.41 1.41a.485.485 0 0 0 .7 0c.2-.2.2-.51 0-.71L18 17.3zM5.99 6.7a.485.485 0 0 0 .7 0c.2-.2.2-.51 0-.71L5.28 4.58c-.2-.2-.51-.2-.71 0s-.2.51 0 .71L5.98 6.7z" data-original="#000000"/></symbol><symbol id="logo-large" viewBox="0 0 20 32">
<path d="M12.768 0l-8.88 18.835h1.952c0.29 0 0.394-0.608 9.494-18.835h4.397c-9.965 19.004-10.868 19.769-10.868 19.769l0.486 0.788 0.381 0.701 5.905 10.742s-3.918-5.707-6.312-8.301c-1.242-1.241-2.062-2.518-3.791 0s-5.532 8.301-5.532 8.301v0-32.001z"></path>
</symbol><symbol id="logo-small" viewBox="0 0 20 32">
<path d="M12.768 0l-8.88 18.835h1.952c0.29 0 0.395-0.608 9.494-18.835h4.397c-9.965 19.004-10.868 19.769-10.868 19.769l0.486 0.789 0.381 0.701 5.905 10.74s-3.918-5.706-6.311-8.3c-1.242-1.242-2.061-2.518-3.791 0s-5.533 8.3-5.533 8.3v0-32z"></path>
</symbol><symbol id="github" viewBox="0 0 24 24"><path d="M12 .5C5.37.5 0 5.78 0 12.292c0 5.211 3.438 9.63 8.205 11.188.6.111.82-.254.82-.567 0-.28-.01-1.022-.015-2.005-3.338.711-4.042-1.582-4.042-1.582-.546-1.361-1.335-1.725-1.335-1.725-1.087-.731.084-.716.084-.716 1.205.082 1.838 1.215 1.838 1.215 1.07 1.803 2.809 1.282 3.495.981.108-.763.417-1.282.76-1.577-2.665-.295-5.466-1.309-5.466-5.827 0-1.287.465-2.339 1.235-3.164-.135-.298-.54-1.497.105-3.121 0 0 1.005-.316 3.3 1.209.96-.262 1.98-.392 3-.398 1.02.006 2.04.136 3 .398 2.28-1.525 3.285-1.209 3.285-1.209.645 1.624.24 2.823.12 3.121.765.825 1.23 1.877 1.23 3.164 0 4.53-2.805 5.527-5.475 5.817.42.354.81 1.077.81 2.182 0 1.578-.015 2.846-.015 3.229 0 .309.21.678.825.56C20.565 21.917 24 17.495 24 12.292 24 5.78 18.627.5 12 .5z" data-original="#000000"/></symbol><symbol id="whatsapp" viewBox="0 0 512 512"><path d="M256 0C114.62 0 0 114.62 0 256s114.62 256 256 256 256-114.62 256-256S397.38 0 256 0zm3.35 402.4h-.06c-25.05 0-49.66-6.29-71.51-18.21L108.44 405l21.24-77.55c-13.1-22.69-19.99-48.44-19.98-74.81.03-82.51 67.16-149.64 149.65-149.64 40.03.02 77.61 15.6 105.86 43.89 28.25 28.28 43.81 65.88 43.79 105.87-.03 82.51-67.17 149.64-149.65 149.64zm.05-274.13c-68.61 0-124.41 55.8-124.43 124.38-.01 23.5 6.56 46.39 19.01 66.19l2.96 4.71-12.56 45.9 47.07-12.35 4.54 2.69c19.1 11.34 40.99 17.33 63.31 17.34h.05c68.56 0 124.36-55.8 124.38-124.38.02-33.24-12.91-64.49-36.39-88-23.49-23.51-54.72-36.46-87.94-36.48zm73.16 177.85c-3.11 8.74-18.05 16.71-25.24 17.78-6.44.97-14.59 1.37-23.55-1.48-5.43-1.72-12.39-4.02-21.31-7.87-37.51-16.2-62.01-53.97-63.88-56.47-1.87-2.49-15.27-20.27-15.27-38.68 0-18.4 9.66-27.45 13.09-31.19 3.43-3.74 7.48-4.68 9.97-4.68s4.99.02 7.17.13c2.29.12 5.37-.87 8.41 6.42 3.11 7.49 10.59 25.89 11.53 27.77.93 1.87 1.56 4.05.31 6.55-1.25 2.49-1.87 4.05-3.74 6.23-1.87 2.19-3.93 4.88-5.61 6.56-1.87 1.86-3.82 3.88-1.64 7.63 2.18 3.74 9.69 15.98 20.8 25.9 14.29 12.74 26.33 16.69 30.07 18.56 3.74 1.87 5.92 1.56 8.1-.94 2.19-2.49 9.35-10.92 11.84-14.66 2.5-3.74 4.99-3.12 8.42-1.87 3.42 1.25 21.81 10.29 25.55 12.17 3.74 1.87 6.23 2.8 7.16 4.36.94 1.56.94 9.05-2.18 17.78z" data-original="#000000"/></symbol><symbol id="linkedin" viewBox="0 0 512 512"><path d="M256 0C114.637 0 0 114.637 0 256s114.637 256 256 256 256-114.637 256-256S397.363 0 256 0zm-74.39 387h-62.348V199.426h62.347zm-31.173-213.188h-.406c-20.922 0-34.453-14.402-34.453-32.402 0-18.406 13.945-32.41 35.274-32.41 21.328 0 34.453 14.004 34.859 32.41 0 18-13.531 32.403-35.274 32.403zM406.423 387h-62.34V286.652c0-25.218-9.027-42.418-31.586-42.418-17.223 0-27.48 11.602-31.988 22.801-1.649 4.008-2.051 9.61-2.051 15.215V387h-62.344s.817-169.977 0-187.574h62.344v26.558c8.285-12.78 23.11-30.96 56.188-30.96 41.02 0 71.777 26.808 71.777 84.421zm0 0" data-original="#000000"/></symbol></svg>
