<svg xmlns="http://www.w3.org/2000/svg"><symbol id="dark-mode" viewBox="0 0 32 32"><path d="M28.83 22.32A13.93 13.93 0 1 1 9.68 3.17a1.07 1.07 0 0 1 1.47 1.49 11.78 11.78 0 0 0 16.19 16.19 1.07 1.07 0 0 1 1.49 1.47z" data-original="#000000"/></symbol><symbol id="light-mode" viewBox="0 0 24 24"><circle cx="12" cy="12" r="6" data-original="#000000"/><path d="M12 4.5c.28 0 .5-.22.5-.5V2c0-.28-.22-.5-.5-.5s-.5.22-.5.5v2c0 .28.22.5.5.5zm0 15c-.28 0-.5.22-.5.5v2c0 .28.22.5.5.5s.5-.22.5-.5v-2c0-.28-.22-.5-.5-.5zm10-8h-2c-.28 0-.5.22-.5.5s.22.5.5.5h2c.28 0 .5-.22.5-.5s-.22-.5-.5-.5zm-18 0H2c-.28 0-.5.22-.5.5s.22.5.5.5h2c.28 0 .5-.22.5-.5s-.22-.5-.5-.5zm13.66-4.66c.13 0 .26-.05.35-.15l1.41-1.41c.2-.2.2-.51 0-.71s-.51-.2-.71 0L17.3 5.98c-.2.2-.2.51 0 .71.1.1.23.15.35.15zM5.99 17.3l-1.41 1.41c-.2.2-.2.51 0 .71a.485.485 0 0 0 .7 0l1.41-1.41c.2-.2.2-.51 0-.71s-.51-.2-.71 0zm12.02 0c-.2-.2-.51-.2-.71 0s-.2.51 0 .71l1.41 1.41a.485.485 0 0 0 .7 0c.2-.2.2-.51 0-.71L18 17.3zM5.99 6.7a.485.485 0 0 0 .7 0c.2-.2.2-.51 0-.71L5.28 4.58c-.2-.2-.51-.2-.71 0s-.2.51 0 .71L5.98 6.7z" data-original="#000000"/></symbol></svg>
