<svg width="1440" height="2277" viewBox="0 0 1440 2277" fill="none" xmlns="http://www.w3.org/2000/svg">
<path d="M985.522 838.347C1214.11 1055.94 1384.34 1291.45 1474.79 1496.31C1520.02 1598.74 1545.29 1693.48 1547.95 1774.47C1550.61 1855.46 1530.67 1922.65 1485.52 1970.07C1440.36 2017.48 1374.21 2040.69 1293.17 2042.01C1212.13 2043.32 1116.25 2022.73 1011.7 1982.59C802.618 1902.31 558.992 1743.87 330.406 1526.27C101.819 1308.68 -68.4132 1073.17 -158.865 868.312C-204.091 765.883 -229.361 671.142 -232.024 590.153C-234.686 509.165 -214.742 441.969 -169.588 394.554C-124.435 347.138 -58.2833 323.928 22.7538 322.615C103.793 321.301 199.679 341.89 304.223 382.03C513.309 462.309 756.935 620.753 985.522 838.347Z" stroke="#161515"/>
<path d="M991.472 844.111C1216.22 1065.66 1382.32 1304.11 1469.18 1510.52C1512.61 1613.72 1536.22 1708.89 1537.47 1789.92C1538.72 1870.94 1517.6 1937.78 1471.63 1984.4C1425.66 2031.02 1359.11 2053.07 1278.06 2052.97C1197.01 2052.87 1101.5 2030.61 997.677 1988.65C790.026 1904.74 549.206 1742.06 324.455 1520.51C99.7044 1298.96 -66.3892 1060.51 -153.25 854.103C-196.681 750.9 -220.294 655.731 -221.542 574.707C-222.79 493.684 -201.676 426.845 -155.702 380.225C-109.728 333.604 -43.1826 311.551 37.8641 311.652C118.913 311.753 214.424 334.012 318.25 375.971C525.901 459.887 766.721 622.559 991.472 844.111Z" stroke="#161515"/>
<path d="M997.321 849.978C1218.17 1075.42 1380.07 1316.74 1463.32 1524.63C1504.94 1628.57 1526.89 1724.14 1526.72 1805.18C1526.55 1886.21 1504.28 1952.67 1457.5 1998.48C1410.72 2044.29 1343.8 2065.18 1262.76 2063.67C1181.73 2062.15 1086.62 2038.23 983.547 1994.46C777.395 1906.94 539.454 1740.09 318.607 1514.64C97.7601 1289.2 -64.1441 1047.89 -147.388 839.994C-189.011 736.047 -210.958 640.48 -210.791 559.445C-210.625 478.412 -188.348 411.951 -141.568 366.14C-94.7878 320.328 -27.8681 299.439 53.1637 300.954C134.198 302.47 229.304 326.392 332.381 370.156C538.533 457.684 776.475 624.536 997.321 849.978Z" stroke="#161515"/>
<path d="M1003.07 855.947C1219.94 1085.21 1377.61 1329.32 1457.21 1538.63C1497.01 1643.29 1517.29 1739.23 1515.71 1820.25C1514.12 1901.27 1490.69 1967.33 1443.12 2012.32C1395.55 2057.31 1328.27 2077.03 1247.28 2074.1C1166.29 2071.17 1071.61 2045.59 969.317 2000.03C764.727 1908.92 529.737 1737.94 312.861 1508.67C95.9859 1279.41 -61.6796 1035.3 -141.281 825.99C-181.082 721.331 -201.358 625.395 -199.777 544.374C-198.196 463.356 -174.763 397.293 -127.191 352.304C-79.6185 307.315 -12.345 287.597 68.6471 290.526C149.642 293.455 244.315 319.034 346.611 364.59C551.202 455.703 786.192 626.683 1003.07 855.947Z" stroke="#161515"/>
<path d="M1008.71 862.015C1221.54 1095.03 1374.92 1341.85 1450.86 1552.53C1488.83 1657.87 1507.42 1754.14 1504.43 1835.12C1501.43 1916.1 1476.85 1981.75 1428.5 2025.9C1380.15 2070.05 1312.55 2088.6 1231.62 2084.25C1150.69 2079.91 1056.48 2052.68 954.992 2005.35C752.025 1910.68 520.058 1735.62 307.22 1502.61C94.3823 1269.59 -58.9965 1022.77 -134.931 812.094C-172.899 706.756 -191.497 610.479 -188.502 529.497C-185.507 448.518 -160.924 382.873 -112.575 338.72C-64.225 294.568 3.38168 276.026 84.3094 280.368C165.24 284.71 259.45 311.937 360.935 359.273C563.902 453.942 795.869 628.999 1008.71 862.015Z" stroke="#161515"/>
<path d="M1014.24 868.18C1222.98 1104.88 1372.02 1354.34 1444.27 1566.31C1480.39 1672.3 1497.3 1768.88 1492.9 1849.8C1488.49 1930.72 1462.76 1995.93 1413.65 2039.23C1364.54 2082.53 1296.62 2099.89 1215.78 2094.14C1134.94 2088.38 1041.22 2059.52 940.578 2010.42C739.297 1912.22 510.423 1733.14 301.687 1496.44C92.9515 1259.74 -56.0938 1010.28 -128.339 798.31C-164.462 692.325 -181.376 595.737 -176.968 514.819C-172.56 433.903 -146.835 368.697 -97.7229 325.394C-48.6105 282.091 19.3088 264.732 100.147 270.486C180.989 276.239 274.709 305.106 375.351 354.206C576.632 452.403 805.505 631.483 1014.24 868.18Z" stroke="#161515"/>
<path d="M1019.67 874.441C1224.24 1114.75 1368.9 1366.78 1437.44 1579.98C1471.7 1686.58 1486.93 1783.45 1481.11 1864.28C1475.29 1945.1 1448.43 2009.85 1398.57 2052.29C1348.71 2094.73 1280.5 2110.9 1199.77 2103.74C1119.05 2096.58 1025.85 2066.08 926.077 2015.23C726.543 1913.53 500.833 1730.49 296.263 1490.18C91.6926 1249.87 -52.9737 997.843 -121.507 784.643C-155.774 678.042 -170.999 581.173 -165.179 500.343C-159.36 419.516 -132.501 354.768 -82.641 312.328C-32.7807 269.889 35.4305 253.717 116.156 260.88C196.883 268.044 290.084 298.542 389.852 349.391C589.386 451.087 815.096 634.135 1019.67 874.441Z" stroke="#161515"/>
<path d="M1024.98 880.795C1225.32 1124.64 1365.57 1379.16 1430.37 1593.52C1462.77 1700.71 1476.3 1797.83 1469.07 1878.54C1461.84 1959.26 1433.86 2023.53 1383.26 2065.09C1332.67 2106.66 1264.19 2121.64 1183.6 2113.06C1103.01 2104.49 1010.36 2072.37 911.494 2019.79C713.768 1914.63 491.29 1727.67 290.948 1483.82C90.606 1239.98 -49.6374 985.463 -114.438 771.098C-146.838 663.914 -160.37 566.793 -153.141 486.076C-145.911 405.361 -117.927 341.091 -67.3339 299.527C-16.7409 257.964 51.7414 242.984 132.328 251.555C212.917 260.126 305.571 292.247 404.435 344.829C602.162 449.993 824.64 636.953 1024.98 880.795Z" stroke="#161515"/>
<path d="M1030.18 887.242C1226.24 1134.55 1362.02 1391.48 1423.06 1606.94C1453.59 1714.68 1465.42 1812.02 1456.78 1892.6C1448.15 1973.18 1419.05 2036.95 1367.74 2077.62C1316.43 2118.3 1247.69 2132.08 1167.27 2122.1C1086.84 2112.13 994.765 2078.4 896.835 2024.1C700.976 1915.5 481.798 1724.68 285.745 1477.38C89.6923 1230.07 -46.0854 973.144 -107.133 757.678C-137.658 649.944 -149.492 552.6 -140.855 472.021C-132.217 391.444 -103.116 327.671 -51.8057 286.996C-0.49552 246.321 68.2371 232.539 148.661 242.515C229.088 252.491 321.165 286.224 419.095 340.524C614.954 449.122 834.132 639.939 1030.18 887.242Z" stroke="#161515"/>
<path d="M1035.27 893.779C1226.98 1144.47 1358.25 1403.73 1415.53 1620.23C1444.16 1728.48 1454.3 1826.02 1444.26 1906.44C1434.21 1986.85 1404 2050.11 1351.99 2089.88C1299.98 2129.66 1231.02 2142.24 1150.78 2130.86C1070.54 2119.48 979.067 2084.15 882.101 2028.15C688.17 1916.14 472.359 1721.53 280.655 1470.84C88.951 1220.15 -42.3198 960.889 -99.5967 744.388C-128.236 636.136 -138.369 538.6 -128.326 458.183C-118.284 377.768 -88.0739 314.511 -36.0621 274.738C15.9498 234.964 84.9117 222.383 165.148 233.761C245.388 245.139 336.861 280.474 433.828 336.475C627.758 448.476 843.57 643.09 1035.27 893.779Z" stroke="#161515"/>
<path d="M1040.25 900.404C1227.55 1154.4 1354.27 1415.92 1407.76 1633.39C1434.5 1742.13 1442.93 1839.83 1431.49 1920.06C1420.04 2000.28 1388.73 2063 1336.04 2101.87C1283.34 2140.73 1214.17 2152.1 1134.14 2139.33C1054.11 2126.55 963.273 2089.62 867.3 2031.94C675.356 1916.57 462.977 1718.22 275.68 1464.22C88.383 1210.22 -38.3407 948.701 -91.8292 731.231C-118.574 622.495 -127.003 524.795 -115.558 444.565C-104.114 364.337 -72.8045 301.616 -20.1069 262.756C32.5907 223.895 101.761 212.519 181.786 225.296C261.813 238.072 352.655 274.998 448.628 332.683C640.572 448.052 852.952 646.405 1040.25 900.404Z" stroke="#161515"/>
<path d="M1045.11 907.114C1227.94 1164.35 1350.08 1428.04 1399.76 1646.41C1424.6 1755.6 1431.33 1853.43 1418.48 1933.45C1405.64 2013.47 1373.24 2075.63 1319.87 2113.57C1266.51 2151.5 1197.15 2161.67 1117.36 2147.5C1037.57 2133.33 947.386 2094.82 852.436 2035.47C662.537 1916.77 453.655 1714.74 270.823 1457.51C87.99 1200.27 -34.1481 936.583 -83.8319 718.21C-108.674 609.023 -115.396 511.19 -102.553 431.171C-89.7101 351.153 -57.3112 288.988 -3.94389 251.053C49.4234 213.117 118.781 202.95 198.57 217.121C278.361 231.292 368.544 269.798 463.494 329.15C653.393 447.852 862.275 649.882 1045.11 907.114Z" stroke="#161515"/>
<path d="M1049.85 913.908C1228.16 1174.29 1345.68 1440.08 1391.54 1659.29C1414.47 1768.89 1419.49 1866.83 1405.25 1946.61C1391.01 2026.39 1357.53 2087.99 1303.51 2124.98C1249.49 2161.98 1179.97 2170.94 1100.44 2155.38C1020.91 2139.82 931.411 2099.74 837.512 2038.74C649.716 1916.74 444.395 1711.1 266.082 1450.71C87.7698 1190.33 -29.7455 924.54 -75.6093 705.332C-98.5414 595.726 -103.555 497.79 -89.317 418.006C-75.0794 338.224 -41.6007 276.633 12.4201 239.634C66.4409 202.635 135.964 193.68 215.493 209.241C295.024 224.802 384.52 264.876 478.419 325.876C666.214 447.876 871.536 653.522 1049.85 913.908Z" stroke="#161515"/>
<path d="M1054.47 920.783C1228.21 1184.24 1341.06 1452.04 1383.09 1672.02C1404.11 1782.01 1407.41 1880.02 1391.78 1959.54C1376.16 2039.07 1341.61 2100.06 1286.95 2136.12C1232.29 2172.17 1162.62 2179.91 1083.38 2162.96C1004.13 2146.01 915.352 2104.38 822.534 2041.75C636.898 1916.5 435.2 1707.3 261.462 1443.83C87.7238 1180.37 -25.133 912.576 -67.1629 692.598C-88.178 582.608 -91.4812 484.598 -75.8529 405.074C-60.225 325.552 -25.6766 264.553 28.9811 228.502C83.6389 192.451 153.307 184.71 232.551 201.657C311.798 218.604 400.579 260.234 493.398 322.864C679.033 448.123 880.732 657.323 1054.47 920.783Z" stroke="#161515"/>
<path d="M1058.97 927.74C1228.08 1194.19 1336.24 1463.92 1374.43 1684.6C1393.52 1794.95 1395.11 1893 1378.1 1972.24C1361.08 2051.48 1325.48 2111.87 1270.2 2146.96C1214.92 2182.05 1145.13 2188.57 1066.19 2170.25C987.255 2151.92 899.214 2108.75 807.504 2044.51C624.085 1916.03 426.072 1703.33 256.961 1436.88C87.8497 1170.43 -20.3141 900.695 -58.4973 680.015C-77.5891 569.674 -79.181 471.62 -62.1671 392.38C-45.1537 313.141 -9.54622 252.755 45.7319 217.662C101.01 182.57 170.802 176.046 249.737 194.373C328.675 212.7 416.715 255.873 508.426 320.114C691.844 448.595 889.858 661.285 1058.97 927.74Z" stroke="#161515"/>
<path d="M1063.35 934.774C1227.78 1204.14 1331.22 1475.72 1365.54 1697.04C1382.7 1807.7 1382.58 1905.76 1364.19 1984.7C1345.8 2063.63 1309.14 2123.38 1253.26 2157.51C1197.38 2191.63 1127.48 2196.93 1048.88 2177.23C970.276 2157.53 883.003 2112.83 792.429 2046.99C611.283 1915.33 417.015 1699.22 252.582 1429.85C88.1501 1160.48 -15.2877 888.9 -49.6126 667.585C-66.7752 556.926 -66.6553 458.858 -48.261 379.926C-29.8672 300.996 6.78854 241.239 62.6701 207.116C118.552 172.993 188.447 167.688 267.049 187.389C345.654 207.092 432.926 251.795 523.5 317.627C704.646 449.29 898.915 665.405 1063.35 934.774Z" stroke="#161515"/>
<path d="M1067.6 941.882C1227.31 1214.08 1325.99 1487.43 1356.44 1709.31C1371.67 1820.25 1369.84 1918.3 1350.07 1996.9C1330.3 2075.5 1292.61 2134.61 1236.14 2167.75C1179.67 2200.9 1109.7 2204.98 1031.45 2183.91C953.202 2162.84 866.724 2116.62 777.314 2049.22C598.496 1914.41 408.032 1694.94 248.328 1422.74C88.6249 1150.54 -10.0555 877.193 -40.5116 655.31C-55.7399 544.367 -53.9081 446.316 -34.139 367.715C-14.3705 289.117 23.3223 230.008 79.7904 196.865C136.259 163.723 206.235 159.637 284.48 180.708C362.728 201.779 449.206 247.999 538.616 315.402C717.434 450.207 907.899 669.682 1067.6 941.882Z" stroke="#161515"/>
<path d="M1071.73 949.064C1226.66 1224.01 1320.55 1499.04 1347.13 1721.42C1360.42 1832.62 1356.87 1930.62 1335.74 2008.87C1314.6 2087.11 1275.88 2145.55 1218.84 2177.7C1161.81 2209.86 1091.77 2212.72 1013.91 2190.29C936.038 2167.85 850.381 2120.13 762.162 2051.18C585.726 1913.27 399.124 1690.5 244.198 1415.56C89.2722 1140.61 -4.62064 865.58 -31.1987 643.197C-44.4879 532.004 -40.9449 433.998 -19.807 355.754C1.33026 277.512 40.0487 219.069 97.0861 186.916C154.124 154.763 224.159 151.899 302.024 174.332C379.892 196.766 465.549 244.488 553.767 313.442C730.203 451.349 916.806 674.116 1071.73 949.064Z" stroke="#161515"/>
<path d="M1075.74 956.316C1225.84 1233.93 1314.91 1510.56 1337.61 1733.37C1348.95 1844.78 1343.7 1942.71 1321.2 2020.58C1298.7 2098.44 1258.97 2156.2 1201.38 2187.35C1143.79 2218.5 1073.71 2220.14 996.253 2196.36C918.79 2172.57 833.98 2123.36 746.979 2052.87C572.98 1911.91 390.296 1685.92 240.195 1408.3C90.0937 1130.69 1.01693 854.063 -21.675 631.247C-33.0211 519.838 -27.768 421.908 -5.26777 344.043C17.2318 266.181 56.964 208.422 114.553 177.269C172.143 146.116 242.217 144.475 319.678 168.263C397.141 192.053 481.951 241.263 568.951 311.746C742.951 452.712 925.635 678.704 1075.74 956.316Z" stroke="#161515"/>
<path d="M1079.61 963.638C1224.84 1243.83 1309.08 1521.97 1327.88 1745.15C1337.27 1856.75 1330.31 1954.57 1306.46 2032.03C1282.6 2109.49 1241.87 2166.55 1183.75 2196.69C1125.62 2226.83 1055.53 2227.25 978.497 2202.12C901.462 2176.98 817.525 2126.3 731.769 2054.3C560.258 1910.32 381.549 1681.17 236.318 1400.98C91.0874 1120.79 6.85389 842.646 -11.945 619.465C-21.3445 507.874 -14.3829 410.049 9.47284 332.589C33.3278 255.13 74.0618 198.073 132.185 167.929C190.309 137.785 260.401 137.367 337.434 162.504C414.469 187.641 498.406 238.324 584.162 310.316C755.673 454.298 934.381 683.446 1079.61 963.638Z" stroke="#161515"/>
<path d="M1083.36 971.027C1223.68 1253.71 1303.04 1533.29 1317.94 1756.77C1325.39 1868.5 1316.72 1966.19 1291.52 2043.23C1266.32 2120.26 1224.59 2176.6 1165.95 2205.72C1107.31 2234.85 1037.22 2234.04 960.642 2207.57C884.059 2181.09 801.02 2128.95 716.534 2055.47C547.565 1908.51 372.885 1676.28 232.569 1393.59C92.2529 1110.91 12.8883 831.333 -2.01184 607.856C-9.46197 496.116 -0.793857 398.427 24.4101 321.393C49.6132 244.362 91.3365 188.023 149.977 158.898C208.617 129.773 278.705 130.578 355.286 157.055C431.87 183.533 514.908 235.674 599.394 309.152C768.363 456.106 943.043 688.34 1083.36 971.027Z" stroke="#161515"/>
<path d="M1086.98 978.479C1222.34 1263.57 1296.81 1544.49 1307.81 1768.2C1313.3 1880.05 1302.93 1977.58 1276.39 2054.16C1249.84 2130.74 1207.14 2186.34 1148.01 2214.44C1088.87 2242.54 1018.8 2240.51 942.698 2212.7C866.589 2184.89 784.474 2131.31 701.285 2056.37C534.908 1906.49 364.311 1671.24 228.952 1386.14C93.5931 1101.05 19.1215 820.125 8.12476 596.42C2.62632 484.566 12.9982 387.042 39.5427 310.459C66.0863 233.878 108.786 178.276 167.925 150.178C227.065 122.08 297.126 124.108 373.233 151.918C449.342 179.728 531.457 233.311 614.646 308.252C781.023 458.134 951.62 693.383 1086.98 978.479Z" stroke="#161515"/>
<path d="M1090.47 985.994C1220.83 1273.41 1290.38 1555.59 1297.47 1779.46C1301.02 1891.39 1288.94 1988.72 1261.07 2064.83C1233.19 2140.94 1189.53 2195.79 1129.91 2222.85C1070.29 2249.91 1000.27 2246.66 924.665 2217.53C849.054 2188.39 767.887 2133.38 686.02 2057C522.287 1904.24 355.824 1666.04 225.464 1378.63C95.1033 1091.21 25.5475 809.029 18.4574 585.164C14.9124 473.23 26.9849 375.9 54.8618 299.791C82.7379 223.684 126.401 168.835 186.021 141.773C245.641 114.711 315.656 117.961 391.265 147.095C466.876 176.23 548.042 231.237 629.91 307.62C793.643 460.384 960.106 698.577 1090.47 985.994Z" stroke="#161515"/>
<path d="M1093.82 993.569C1219.14 1283.22 1283.76 1566.57 1286.94 1790.53C1288.54 1902.51 1274.77 1999.62 1245.57 2075.23C1216.37 2150.84 1171.75 2204.92 1111.67 2230.94C1051.59 2256.95 981.639 2252.48 906.551 2222.03C831.461 2191.58 751.268 2135.17 670.748 2057.37C509.708 1901.77 347.43 1660.7 222.108 1371.05C96.7858 1081.4 32.167 798.047 28.9857 574.089C27.395 462.109 41.1645 365.004 70.3654 289.392C99.5654 213.782 144.179 159.702 204.262 133.684C264.344 107.667 334.291 112.138 409.379 142.587C484.469 173.037 564.662 229.454 645.183 307.254C806.223 462.854 968.501 703.917 1093.82 993.569Z" stroke="#161515"/>
<path d="M1097.05 1001.2C1217.29 1293 1276.95 1577.44 1276.23 1801.42C1275.86 1913.41 1260.4 2010.26 1229.88 2085.36C1199.37 2160.44 1153.82 2213.74 1093.29 2238.7C1032.76 2263.67 962.906 2257.98 888.362 2226.22C813.815 2194.47 734.621 2136.66 655.471 2057.47C497.173 1899.08 339.13 1655.22 218.884 1363.42C98.6389 1071.62 38.9766 787.181 39.7052 563.2C40.0694 451.208 55.5317 354.356 86.0476 279.265C116.563 204.175 162.113 150.881 222.64 125.916C283.167 100.95 353.024 106.641 427.568 138.396C502.115 170.152 581.31 227.96 660.459 307.155C818.757 465.542 976.8 709.404 1097.05 1001.2Z" stroke="#161515"/>
<path d="M1100.13 1008.89C1215.27 1302.74 1269.95 1588.18 1265.32 1812.12C1263 1924.09 1245.85 2020.66 1214.03 2095.21C1182.2 2169.75 1135.73 2222.25 1074.78 2246.15C1013.83 2270.06 944.079 2263.15 870.102 2230.1C796.122 2197.04 717.949 2137.86 640.195 2057.3C484.688 1896.17 330.927 1649.59 215.794 1355.73C100.662 1061.88 45.9745 776.436 50.6126 552.499C52.9317 440.529 70.082 343.961 101.904 269.413C133.724 194.866 180.198 142.375 241.15 118.469C302.103 94.5625 371.85 101.472 445.828 134.523C519.807 167.576 597.98 226.757 675.735 307.322C831.241 468.449 985.002 715.034 1100.13 1008.89Z" stroke="#161515"/>
<path d="M1103.09 1016.63C1213.07 1312.45 1262.77 1598.81 1254.22 1822.63C1249.95 1934.54 1231.12 2030.8 1198 2104.78C1164.88 2178.76 1117.5 2230.44 1056.14 2253.28C994.78 2276.11 925.166 2267.99 851.777 2233.65C778.386 2199.31 701.259 2138.78 624.924 2056.87C472.255 1893.05 322.823 1643.81 212.839 1347.99C102.855 1052.17 53.159 765.815 61.7053 541.99C65.9785 430.076 84.8116 333.821 117.929 259.839C151.046 185.858 198.428 134.185 259.788 111.346C321.148 88.5066 390.763 96.632 464.152 130.97C537.542 165.308 614.67 225.845 691.005 307.755C843.674 471.574 993.105 720.806 1103.09 1016.63Z" stroke="#161515"/>
<path d="M1105.91 1024.42C1210.71 1322.12 1255.4 1609.3 1242.95 1832.94C1236.72 1944.77 1216.21 2040.68 1181.81 2114.07C1147.41 2187.47 1099.13 2238.31 1037.38 2260.07C975.634 2281.84 906.172 2272.5 833.395 2236.88C760.615 2201.27 684.558 2139.39 609.665 2056.16C459.88 1889.71 314.823 1637.9 210.021 1340.2C105.218 1042.5 60.529 755.319 72.9809 531.675C79.2069 419.852 99.7171 323.939 134.121 250.545C168.524 177.153 216.8 126.313 278.549 104.548C340.297 82.783 409.759 92.1221 482.536 127.735C555.315 163.35 631.373 225.224 706.266 308.455C856.051 474.914 1001.11 726.719 1105.91 1024.42Z" stroke="#161515"/>
<path d="M1108.59 1032.26C1208.18 1331.74 1247.85 1619.66 1231.5 1843.06C1223.32 1954.76 1201.14 2050.3 1165.46 2123.08C1129.78 2195.87 1080.63 2245.86 1018.51 2266.54C956.389 2287.22 887.102 2276.67 814.958 2239.8C742.812 2202.92 667.847 2139.72 594.419 2055.2C447.565 1886.15 306.927 1631.85 207.338 1332.36C107.749 1032.88 68.0799 744.955 84.4335 521.56C92.6105 409.861 114.792 314.32 150.471 241.536C186.149 168.754 235.305 118.765 297.423 98.0801C359.542 77.3955 428.829 87.9453 500.973 124.824C573.118 161.703 648.084 224.896 721.512 309.421C868.366 478.47 1009 732.771 1108.59 1032.26Z" stroke="#161515"/>
<path d="M918.369 926.723C1012.71 1227.9 1047.35 1516.48 1027.1 1739.56C1016.98 1851.1 993.13 1946.24 956.186 2018.39C919.243 2090.54 869.223 2139.66 806.754 2159.26C744.284 2178.86 675.193 2167.1 603.704 2128.97C532.214 2090.84 458.364 2026.34 386.424 1940.55C242.544 1768.96 106.368 1512.24 12.0234 1211.06C-82.3216 909.879 -116.958 621.306 -96.708 398.227C-86.5827 286.687 -62.7375 191.546 -25.7936 119.395C11.1492 47.2466 61.1694 -1.87826 123.639 -21.4761C186.108 -41.0739 255.2 -29.3166 326.688 8.81539C398.178 46.9485 472.028 111.44 543.969 197.235C687.848 368.823 824.024 625.542 918.369 926.723Z" stroke="#161515"/>
<path d="M1113.55 1048.07C1202.62 1350.85 1232.21 1639.99 1208.07 1862.68C1196 1974.03 1170.5 2068.74 1132.3 2140.24C1094.1 2211.73 1043.23 2259.98 980.434 2278.48C917.632 2296.99 848.757 2284.03 777.946 2244.65C707.133 2205.28 634.421 2139.51 563.99 2052.47C423.129 1878.39 291.457 1619.34 202.385 1316.55C113.312 1013.77 83.7183 724.628 107.859 501.935C119.93 390.587 145.432 295.876 183.629 224.38C221.825 152.886 272.695 104.641 335.496 86.1357C398.298 67.6307 467.173 80.592 537.984 119.966C608.797 159.341 681.509 225.113 751.94 312.151C892.801 486.225 1024.47 745.284 1113.55 1048.07Z" stroke="#161515"/>
<path d="M1115.81 1056.04C1199.59 1360.33 1224.13 1649.95 1196.1 1872.19C1182.09 1983.31 1154.94 2077.56 1115.5 2148.38C1076.06 2219.2 1024.36 2266.55 961.247 2283.96C898.133 2301.36 829.495 2287.2 759.383 2246.6C689.269 2205.99 617.717 2138.96 548.817 2050.71C411.017 1874.2 283.888 1612.88 200.116 1308.58C116.343 1004.29 91.8013 714.673 119.826 492.432C133.838 381.31 160.989 287.057 200.428 216.238C239.866 145.421 291.569 98.07 354.683 80.6635C417.797 63.2569 486.435 77.4182 556.547 118.022C626.661 158.627 698.213 225.658 767.114 313.913C904.913 490.421 1032.04 751.741 1115.81 1056.04Z" stroke="#161515"/>
<path d="M1117.94 1064.04C1196.39 1369.76 1215.87 1659.76 1183.97 1881.48C1168.02 1992.34 1139.23 2086.11 1098.56 2156.23C1057.9 2226.35 1005.37 2272.79 941.967 2289.09C878.56 2305.4 810.181 2290.04 740.789 2248.22C671.395 2206.39 601.024 2138.12 533.676 2048.68C398.98 1869.79 276.434 1606.29 197.986 1300.58C119.539 994.86 100.056 704.86 131.955 483.139C147.905 372.278 176.697 278.512 217.366 208.391C258.033 138.272 310.555 91.83 373.962 75.5273C437.37 59.2245 505.749 74.5814 575.141 116.403C644.535 158.226 714.905 226.496 782.254 315.941C916.95 494.828 1039.5 758.329 1117.94 1064.04Z" stroke="#161515"/>
<path d="M1119.93 1072.09C1193.03 1379.13 1207.45 1669.43 1171.68 1890.56C1153.8 2001.13 1123.38 2094.38 1081.49 2163.78C1039.61 2233.18 986.284 2278.7 922.602 2293.89C858.92 2309.09 790.82 2292.54 722.17 2249.51C653.517 2206.48 584.35 2137 518.574 2046.39C387.023 1865.18 269.095 1599.57 195.998 1292.53C122.9 985.491 108.482 695.192 144.246 474.059C162.128 363.492 192.552 270.242 234.438 200.84C276.323 131.44 329.647 85.9214 393.328 70.7274C457.01 55.5333 525.11 72.0812 593.761 115.108C662.413 158.136 731.58 227.624 797.357 318.231C928.908 499.444 1046.83 765.046 1119.93 1072.09Z" stroke="#161515"/>
<path d="M1121.78 1080.16C1189.51 1388.44 1198.86 1678.95 1159.24 1899.42C1139.43 2009.66 1107.38 2102.37 1064.29 2171.03C1021.2 2239.69 967.093 2284.27 903.156 2298.35C839.219 2312.43 771.42 2294.7 703.531 2250.48C635.641 2206.26 567.698 2135.58 503.514 2043.83C375.148 1860.35 261.876 1592.73 194.15 1284.45C126.423 976.181 117.075 685.672 156.694 465.194C176.503 354.954 208.549 262.249 251.64 193.587C294.73 124.928 348.839 80.3466 412.776 66.2659C476.712 52.1852 544.512 69.9191 612.4 114.138C680.29 158.357 748.233 229.043 812.417 320.785C940.784 504.267 1054.06 771.89 1121.78 1080.16Z" stroke="#161515"/>
<path d="M1123.49 1088.27C1185.82 1397.68 1190.1 1688.32 1146.64 1908.07C1124.91 2017.95 1091.25 2110.08 1046.97 2177.98C1002.68 2245.88 947.806 2289.51 883.634 2302.47C819.462 2315.44 751.983 2296.52 684.878 2251.13C617.77 2205.73 551.072 2133.87 488.5 2041.02C363.358 1855.32 254.776 1585.76 192.442 1276.35C130.107 966.936 125.832 676.304 169.292 456.549C191.022 346.671 224.682 254.537 268.964 186.638C313.245 118.74 368.124 75.1088 432.296 62.1458C496.468 49.1827 563.947 68.0972 631.052 113.494C698.159 158.892 764.857 230.753 827.429 323.602C952.572 509.299 1061.15 778.86 1123.49 1088.27Z" stroke="#161515"/>
<path d="M1125.05 1096.41C1181.98 1406.86 1181.18 1697.53 1133.89 1916.5C1110.24 2025.98 1074.98 2117.51 1029.52 2184.63C984.062 2251.75 928.431 2294.41 864.043 2306.25C799.656 2318.1 732.518 2298.01 666.216 2251.45C599.912 2204.88 534.479 2131.87 473.538 2037.94C351.657 1850.09 247.799 1578.67 190.875 1268.21C133.952 957.756 134.751 667.091 182.04 448.125C205.684 338.641 240.947 247.108 286.407 179.991C331.866 112.876 387.497 70.208 451.885 58.3666C516.273 46.5251 583.411 66.6144 649.712 113.176C716.016 159.739 781.449 232.753 842.39 326.681C964.271 514.535 1068.13 785.953 1125.05 1096.41Z" stroke="#161515"/>
<path d="M1126.48 1104.57C1177.97 1415.98 1172.1 1706.59 1121 1924.7C1095.44 2033.75 1058.59 2124.66 1011.97 2190.97C965.343 2257.28 908.976 2298.97 844.392 2309.69C779.808 2320.41 713.031 2299.15 647.553 2251.44C582.073 2203.72 517.925 2129.58 458.634 2034.6C340.052 1844.65 240.948 1571.45 189.454 1260.05C137.959 948.644 143.831 658.033 194.934 439.924C220.486 330.868 257.34 239.963 303.965 173.648C350.588 107.336 406.955 65.6447 471.539 54.9285C536.122 44.2122 602.899 65.4702 668.377 113.182C733.857 160.895 798.005 235.041 857.296 330.019C975.878 519.973 1074.98 793.165 1126.48 1104.57Z" stroke="#161515"/>
<path d="M1127.76 1112.76C1173.81 1425.02 1162.86 1715.48 1107.96 1932.67C1080.51 2041.27 1042.08 2131.51 994.301 2197.01C946.528 2262.5 889.443 2303.2 824.682 2312.78C759.922 2322.37 693.528 2299.95 628.893 2251.1C564.256 2202.26 501.413 2127 443.789 2031C328.543 1839.01 234.224 1564.12 188.173 1251.86C142.122 939.603 153.066 649.136 207.969 431.949C235.42 323.354 273.855 233.105 321.629 167.613C369.402 102.124 426.488 61.4223 491.248 51.8345C556.008 42.2467 622.403 64.6668 687.037 113.514C751.674 162.363 814.517 237.618 872.141 333.618C987.388 525.614 1081.71 800.497 1127.76 1112.76Z" stroke="#161515"/>
<path d="M1128.89 1120.96C1169.49 1433.98 1153.47 1724.22 1094.79 1940.42C1065.45 2048.52 1025.44 2138.08 976.534 2202.73C927.626 2267.38 869.839 2307.08 804.922 2315.53C740.005 2323.99 674.013 2300.42 610.241 2250.45C546.468 2200.48 484.949 2124.14 429.01 2027.15C317.133 1833.16 227.628 1556.67 187.036 1243.66C146.443 930.636 162.455 640.401 221.14 424.203C250.482 316.103 290.486 226.537 339.396 161.888C388.304 97.2414 446.091 57.5418 511.008 49.0854C575.925 40.6289 641.917 64.2045 705.689 114.173C769.462 164.143 830.981 240.484 886.92 337.475C998.796 531.455 1088.3 807.945 1128.89 1120.96Z" stroke="#161515"/>
<path d="M1129.89 1129.19C1165.01 1442.87 1143.93 1732.79 1081.49 1947.93C1050.26 2055.51 1008.7 2144.36 958.67 2208.15C908.641 2271.93 850.171 2310.62 785.117 2317.94C720.063 2325.26 654.493 2300.54 591.604 2249.46C528.713 2198.39 468.537 2120.98 414.3 2023.03C305.828 1827.13 221.164 1549.11 186.042 1235.43C150.92 921.746 171.996 631.831 234.444 416.688C265.669 309.115 307.23 220.259 357.26 156.473C407.289 92.6891 465.759 54.0035 530.813 46.681C595.867 39.3586 661.437 64.0823 724.326 115.157C787.217 166.232 847.393 243.636 901.63 341.59C1010.1 537.495 1094.77 815.507 1129.89 1129.19Z" stroke="#161515"/>
<path d="M1130.74 1137.43C1160.38 1451.68 1134.25 1741.19 1068.05 1955.21C1034.96 2062.23 991.851 2150.34 940.715 2213.25C889.582 2276.15 830.446 2313.81 765.274 2320C700.103 2326.18 634.975 2300.32 572.988 2248.15C510.999 2195.99 452.184 2117.55 399.666 2018.66C294.631 1820.89 214.833 1541.44 185.193 1227.19C155.552 912.935 181.685 623.428 247.879 409.405C280.976 302.392 324.081 214.274 375.217 151.37C426.35 88.4679 485.486 50.808 550.658 44.6217C615.829 38.4354 680.957 64.2998 742.944 116.464C804.932 168.63 863.748 247.073 916.266 345.959C1021.3 543.729 1101.1 823.18 1130.74 1137.43Z" stroke="#161515"/>
<path d="M1131.44 1145.69C1155.59 1460.41 1124.41 1749.42 1054.49 1962.26C1019.53 2068.68 974.898 2156.03 922.673 2218.04C870.449 2280.04 810.666 2316.66 745.397 2321.71C680.129 2326.76 615.463 2299.76 554.397 2246.52C493.329 2193.28 435.892 2113.82 385.109 2014.03C283.543 1814.46 208.636 1533.66 184.486 1218.93C160.336 904.206 191.518 615.197 261.437 402.358C296.396 295.938 341.033 208.585 393.258 146.582C445.481 84.5811 505.265 47.9584 570.533 42.9102C635.802 37.862 700.467 64.8592 761.534 118.098C822.602 171.338 880.038 250.796 930.822 350.585C1032.39 550.16 1107.29 830.964 1131.44 1145.69Z" stroke="#161515"/>
<path d="M1132.01 1153.96C1150.66 1469.06 1114.44 1757.48 1040.82 1969.07C1004 2074.87 957.85 2161.43 904.551 2222.51C851.254 2283.59 790.841 2319.17 725.495 2323.07C660.149 2326.98 595.965 2298.86 535.838 2244.56C475.709 2190.27 419.669 2109.82 370.636 2009.16C272.57 1807.84 202.577 1525.77 183.925 1210.66C165.272 895.562 201.494 607.137 275.116 395.549C311.928 289.753 358.082 203.192 411.381 142.109C464.678 81.0279 525.091 45.4535 590.437 41.5449C655.783 37.6363 719.967 65.7581 780.094 120.055C840.222 174.353 896.263 254.802 945.296 355.463C1043.36 556.782 1113.35 838.853 1132.01 1153.96Z" stroke="#161515"/>
<path d="M939.656 1048.81C952.806 1364.2 911.556 1651.95 834.252 1862.22C795.599 1967.36 747.942 2053.1 693.586 2113.25C639.231 2173.39 578.207 2207.9 512.803 2210.67C447.4 2213.44 383.717 2184.2 324.548 2128.86C265.377 2073.52 210.75 1992.11 163.482 1890.61C68.9467 1687.61 3.8889 1404.35 -9.26064 1088.97C-22.4102 773.586 18.8402 485.835 96.1443 275.561C134.797 170.423 182.454 84.6788 236.81 24.5346C291.165 -35.6079 352.189 -70.123 417.593 -72.8908C482.996 -75.6586 546.678 -46.4209 605.848 8.91734C665.019 64.2572 719.646 145.673 766.914 247.175C861.449 450.177 926.507 733.429 939.656 1048.81Z" stroke="#161515"/>
<path d="M1132.7 1170.51C1140.34 1486.08 1094.07 1773.07 1013.11 1981.97C972.629 2086.42 923.483 2171.32 868.085 2230.5C812.69 2289.69 751.073 2323.14 685.632 2324.76C620.191 2326.39 557.029 2296.04 498.835 2239.68C440.64 2183.32 387.443 2100.96 341.955 1998.65C250.978 1794.02 190.876 1509.67 183.233 1194.11C175.591 878.539 221.858 591.548 302.819 382.652C343.301 278.204 392.447 193.303 447.844 134.116C503.24 74.9306 564.856 41.4851 630.298 39.859C695.739 38.2328 758.9 68.5776 817.094 124.941C875.29 181.305 928.486 263.662 973.975 365.975C1064.95 570.598 1125.05 854.946 1132.7 1170.51Z" stroke="#161515"/>
<path d="M1132.82 1178.8C1134.96 1494.46 1083.69 1780.6 999.093 1988.05C956.795 2091.78 906.175 2175.81 849.754 2234.02C793.335 2292.23 731.144 2324.6 665.685 2325.08C600.226 2325.57 537.605 2294.12 480.404 2236.75C423.202 2179.38 371.452 2096.11 327.757 1993.02C240.367 1786.83 185.237 1501.48 183.105 1185.82C180.972 870.165 232.241 584.021 316.836 376.568C359.134 272.84 409.754 188.81 466.175 130.597C522.594 72.3868 584.785 40.0213 650.244 39.5373C715.703 39.0533 778.324 70.4959 835.525 127.866C892.727 185.238 944.477 268.512 988.172 371.604C1075.56 577.786 1130.69 863.142 1132.82 1178.8Z" stroke="#161515"/>
<path d="M1132.81 1187.09C1129.43 1502.73 1073.18 1787.94 984.973 1993.89C940.871 2096.87 888.793 2180 831.365 2237.22C773.938 2294.44 711.193 2325.71 645.736 2325.06C580.28 2324.4 518.217 2291.87 462.028 2233.51C405.836 2175.14 355.548 2090.98 313.659 1987.14C229.883 1779.46 179.743 1493.18 183.121 1177.53C186.499 861.886 242.754 576.677 330.956 370.729C375.058 267.754 427.136 184.619 484.564 127.399C541.991 70.1814 604.736 38.9056 670.193 39.5639C735.649 40.2222 797.712 72.7531 853.901 131.114C910.093 189.476 960.381 273.641 1002.27 377.481C1086.05 585.158 1136.19 871.436 1132.81 1187.09Z" stroke="#161515"/>
<path d="M1132.65 1195.37C1123.76 1510.92 1062.54 1795.1 970.754 1999.48C924.862 2101.67 871.341 2183.89 812.923 2240.1C754.508 2296.31 691.227 2326.48 625.792 2324.68C560.358 2322.88 498.873 2289.27 443.712 2229.94C388.548 2170.6 339.737 2085.57 299.668 1981.02C219.531 1771.91 174.396 1484.8 183.283 1169.25C192.17 853.704 253.394 569.517 345.177 365.137C391.069 262.947 444.59 180.731 503.008 124.522C561.424 68.3143 624.704 38.1378 690.139 39.9381C755.573 41.7385 817.058 75.3478 872.22 134.68C927.383 194.015 976.194 279.046 1016.26 383.602C1096.4 592.711 1141.53 879.824 1132.65 1195.37Z" stroke="#161515"/>
<path d="M1132.34 1203.65C1117.95 1519 1051.77 1802.08 956.437 2004.83C908.769 2106.2 853.821 2187.47 794.432 2242.65C735.045 2297.83 671.247 2326.9 605.855 2323.96C540.463 2321.02 479.575 2286.34 425.458 2226.05C371.339 2165.77 324.021 2079.89 285.783 1974.65C209.309 1764.18 169.194 1476.32 183.587 1160.97C197.98 845.623 264.155 562.545 359.491 359.796C407.159 258.42 462.106 177.151 521.495 121.969C580.883 66.7882 644.68 37.7202 710.072 40.6621C775.465 43.604 836.352 78.2814 890.47 138.568C944.588 198.857 991.907 284.727 1030.14 389.968C1106.62 600.446 1146.73 888.306 1132.34 1203.65Z" stroke="#161515"/>
<path d="M1131.89 1211.93C1112 1526.98 1040.89 1808.86 942.031 2009.92C892.601 2110.45 836.244 2190.75 775.901 2244.88C715.561 2299.02 651.266 2326.97 585.936 2322.89C520.606 2318.81 460.333 2283.07 407.277 2221.85C354.22 2160.62 308.408 2073.94 272.014 1968.05C199.226 1756.26 164.142 1467.75 184.037 1152.69C203.933 837.644 275.038 555.76 373.897 354.703C423.327 254.174 479.684 173.874 540.027 119.736C600.368 65.6 664.662 37.6493 729.992 41.7318C795.322 45.8143 855.595 81.5493 908.651 142.772C961.708 203.996 1007.52 290.68 1043.91 396.573C1116.7 608.357 1151.79 896.876 1131.89 1211.93Z" stroke="#161515"/>
<path d="M1131.3 1220.19C1105.9 1534.85 1029.89 1815.45 927.539 2014.76C876.362 2114.41 818.612 2193.71 757.334 2246.79C696.058 2299.87 631.287 2326.69 566.039 2321.47C500.79 2316.25 441.151 2279.47 389.173 2217.33C337.193 2155.19 292.901 2067.71 258.361 1961.2C189.282 1748.18 159.24 1459.09 184.632 1144.43C210.024 829.77 286.038 549.167 388.39 349.863C439.567 250.21 497.316 170.906 558.594 117.828C619.87 64.7524 684.642 37.9275 749.89 43.1494C815.138 48.3714 874.777 85.153 926.756 147.293C978.736 209.434 1023.03 296.906 1057.57 403.418C1126.65 616.442 1156.69 905.533 1131.3 1220.19Z" stroke="#161515"/>
<path d="M1130.56 1228.45C1099.68 1542.62 1018.78 1821.85 912.964 2019.34C860.056 2118.09 800.932 2196.38 738.737 2248.38C676.545 2300.38 611.316 2326.07 546.169 2319.71C481.023 2313.35 422.036 2275.53 371.15 2212.49C320.263 2149.45 277.506 2061.22 244.831 1954.12C179.481 1739.92 154.491 1450.35 185.371 1136.17C216.251 822.003 297.15 542.766 402.965 345.277C455.873 246.531 514.997 168.245 577.191 116.245C639.384 64.2455 704.613 38.5547 769.76 44.9144C834.906 51.2742 893.893 89.0912 944.778 152.129C995.665 215.169 1038.42 303.401 1071.1 410.501C1136.45 624.7 1161.44 914.274 1130.56 1228.45Z" stroke="#161515"/>
<path d="M1129.68 1236.69C1093.32 1550.27 1007.56 1828.06 898.312 2023.68C843.689 2121.48 783.208 2198.73 720.116 2249.63C657.026 2300.54 591.359 2325.09 526.334 2317.59C461.309 2310.1 402.992 2271.26 353.215 2207.34C303.437 2143.42 262.227 2054.46 231.426 1946.8C169.827 1731.49 149.895 1441.52 186.254 1127.93C222.613 814.346 308.373 536.56 417.617 340.945C472.24 243.136 532.722 165.893 595.813 114.985C658.903 64.0788 724.57 39.5298 789.595 47.0254C854.62 54.521 912.937 93.362 962.714 157.279C1012.49 221.198 1053.7 310.163 1084.5 417.819C1146.1 633.128 1166.03 923.097 1129.68 1236.69Z" stroke="#161515"/>
<path d="M1128.65 1244.91C1086.82 1557.82 996.227 1834.07 883.586 2027.75C827.265 2124.59 765.445 2200.77 701.475 2250.57C637.506 2300.37 571.422 2323.77 506.538 2315.14C441.655 2306.51 384.025 2266.66 335.372 2201.88C286.718 2137.1 247.067 2047.43 218.151 1939.25C160.32 1722.9 145.453 1432.62 187.279 1119.71C229.106 806.802 319.702 530.552 432.343 336.87C488.664 240.029 550.484 163.852 614.454 114.052C678.422 64.2533 744.507 40.8536 809.39 49.4828C874.274 58.1119 931.903 97.9651 980.556 162.742C1029.21 227.52 1068.86 317.192 1097.78 425.37C1155.61 641.723 1170.48 932 1128.65 1244.91Z" stroke="#161515"/>
<path d="M1127.48 1253.11C1080.2 1565.25 984.795 1839.88 868.791 2031.57C810.789 2127.41 747.65 2202.5 682.821 2251.18C617.994 2299.85 551.511 2322.1 486.789 2312.34C422.067 2302.58 365.142 2261.72 317.628 2196.11C270.112 2130.49 232.034 2040.14 205.011 1931.47C150.965 1714.14 141.167 1423.64 188.449 1111.51C235.731 799.372 331.134 524.741 447.137 333.053C505.14 237.207 568.279 162.12 633.108 113.443C697.935 64.768 764.417 42.5248 829.14 52.2849C893.862 62.0451 950.786 102.898 998.301 168.515C1045.82 234.133 1083.9 324.484 1110.92 433.151C1164.96 650.483 1174.76 940.978 1127.48 1253.11Z" stroke="#161515"/>
<path d="M1126.17 1261.3C1073.44 1572.56 973.263 1845.49 853.933 2035.13C794.267 2129.95 729.827 2203.92 664.159 2251.46C598.493 2299 531.633 2320.08 467.092 2309.19C402.551 2298.3 346.349 2256.46 299.987 2190.03C253.625 2123.59 217.129 2032.58 192.008 1923.46C141.765 1705.22 137.039 1414.59 189.762 1103.32C242.485 792.058 342.665 519.131 461.996 329.494C521.662 234.674 586.102 160.699 651.77 113.161C717.436 65.6235 784.296 44.5435 848.837 55.4316C913.378 66.3197 969.58 108.16 1015.94 174.597C1062.3 241.035 1098.8 332.038 1123.92 441.161C1174.16 659.405 1178.89 950.03 1126.17 1261.3Z" stroke="#161515"/>
<path d="M1124.71 1269.45C1066.56 1579.76 961.636 1850.9 839.015 2038.43C777.704 2132.19 711.984 2205.03 645.496 2251.42C579.011 2297.8 511.794 2317.71 447.454 2305.7C383.113 2293.69 327.651 2250.87 282.457 2183.64C237.262 2116.4 202.36 2024.77 179.148 1915.22C132.723 1696.13 133.071 1405.47 191.218 1095.17C249.366 784.863 354.294 513.722 476.915 326.194C538.227 232.429 603.947 159.589 670.434 113.203C736.919 66.8181 804.136 46.9077 868.477 58.9205C932.817 70.9333 988.28 113.749 1033.47 180.985C1078.67 248.222 1113.57 339.849 1136.78 449.395C1183.21 668.486 1182.86 959.152 1124.71 1269.45Z" stroke="#161515"/>
<path d="M1123.11 1277.59C1059.56 1586.83 949.915 1856.1 824.041 2041.46C761.103 2134.15 694.122 2205.83 626.836 2251.05C559.552 2296.27 491.998 2315 427.878 2301.87C363.758 2288.73 309.051 2244.96 265.039 2176.94C221.024 2108.93 187.728 2016.7 166.432 1906.77C123.838 1686.9 129.26 1396.28 192.815 1087.03C256.369 777.789 366.013 508.518 491.888 323.156C554.826 230.474 621.807 158.791 689.093 113.572C756.377 68.3537 823.93 49.6191 888.05 62.7529C952.171 75.8867 1006.88 119.664 1050.89 187.679C1094.9 255.696 1128.2 347.919 1149.5 457.855C1192.09 677.724 1186.67 968.343 1123.11 1277.59Z" stroke="#161515"/>
<path d="M1121.38 1285.69C1052.43 1593.78 938.107 1861.1 809.017 2044.24C744.472 2135.81 676.25 2206.32 608.186 2250.35C540.124 2294.39 472.254 2311.95 408.374 2297.7C344.493 2283.44 290.56 2238.72 247.742 2169.95C204.922 2101.17 173.241 2008.38 153.867 1898.09C115.119 1677.51 125.612 1387.02 194.554 1078.93C263.496 770.839 377.823 503.519 506.912 320.379C571.458 228.808 639.679 158.304 707.744 114.265C775.806 70.2277 843.675 52.6744 907.556 66.9252C971.436 81.176 1025.37 125.902 1068.19 194.675C1111.01 263.45 1142.69 356.241 1162.06 466.533C1200.81 687.115 1190.32 977.598 1121.38 1285.69Z" stroke="#161515"/>
<path d="M1119.49 1293.76C1045.19 1600.61 926.212 1865.89 793.946 2046.76C727.813 2137.19 658.372 2206.49 589.55 2249.34C520.73 2292.18 452.566 2308.55 388.944 2293.18C325.323 2277.82 272.179 2232.16 230.568 2162.65C188.956 2093.14 158.9 1999.8 141.454 1889.19C106.562 1667.96 122.125 1377.7 196.434 1070.86C270.742 764.014 389.716 498.727 521.982 317.865C588.115 227.434 657.556 158.13 726.378 115.285C795.198 72.4414 863.362 56.0749 926.984 71.4383C990.605 86.8018 1043.75 132.462 1085.36 201.973C1126.97 271.486 1157.03 364.816 1174.47 475.431C1209.37 696.658 1193.8 986.917 1119.49 1293.76Z" stroke="#161515"/>
<path d="M1117.47 1301.8C1037.82 1607.3 914.236 1870.48 778.835 2049.01C711.134 2138.27 640.495 2206.35 570.936 2247.99C501.38 2289.63 432.94 2304.8 369.598 2288.33C306.255 2271.86 253.917 2225.28 213.526 2155.05C173.134 2084.82 144.712 1990.98 129.2 1880.08C98.1756 1658.27 118.802 1368.33 198.455 1062.82C278.107 757.316 401.693 494.142 537.093 315.615C604.794 226.35 675.434 158.267 744.992 116.629C814.549 74.9926 882.988 59.8178 946.331 76.2893C1009.67 92.7607 1062.01 139.342 1102.4 209.569C1142.79 279.798 1171.22 373.64 1186.73 484.543C1217.75 706.348 1197.13 996.295 1117.47 1301.8Z" stroke="#161515"/>
<path d="M1115.31 1309.8C1030.34 1613.87 902.182 1874.85 763.687 2050.99C694.439 2139.06 622.623 2205.9 552.349 2246.32C482.077 2286.74 413.384 2300.72 350.339 2283.14C287.294 2265.57 235.778 2218.08 196.62 2147.16C157.46 2076.24 130.681 1981.91 117.107 1870.75C89.9594 1648.44 115.644 1358.89 200.616 1054.82C285.588 750.748 413.747 489.768 552.242 313.628C621.49 225.557 693.306 158.717 763.58 118.298C833.852 77.8813 902.545 63.9029 965.59 81.4773C1028.63 99.0517 1080.15 146.54 1119.31 217.462C1158.47 288.386 1185.25 382.71 1198.82 493.869C1225.97 716.183 1200.29 1005.73 1115.31 1309.8Z" stroke="#161515"/>
<path d="M1113.01 1317.76C1022.75 1620.31 890.053 1879.02 748.506 2052.72C677.732 2139.57 604.761 2205.14 533.793 2244.33C462.827 2283.52 393.901 2296.29 331.173 2277.62C268.446 2258.95 217.767 2210.57 179.853 2138.97C141.938 2067.38 116.809 1972.6 105.178 1861.22C81.9153 1638.46 112.65 1349.4 202.916 1046.86C293.182 744.311 425.876 485.604 567.422 311.906C638.196 225.056 711.168 159.478 782.136 120.292C853.101 81.1064 922.027 68.3286 984.755 87.0006C1047.48 105.673 1098.16 154.053 1136.08 225.648C1173.99 297.245 1199.12 392.024 1210.75 503.403C1234.01 726.16 1203.28 1015.22 1113.01 1317.76Z" stroke="#161515"/>
<path d="M1110.57 1325.68C1015.04 1626.61 877.854 1882.97 733.298 2054.17C661.02 2139.78 586.916 2204.07 515.275 2242.01C443.637 2279.95 374.5 2291.53 312.108 2271.76C249.716 2252 199.89 2202.74 163.232 2130.5C126.573 2058.25 103.103 1963.04 93.4178 1851.48C74.0474 1628.34 109.822 1339.87 205.355 1038.94C300.887 738.008 438.075 481.652 582.631 310.448C654.909 224.845 729.013 160.551 800.653 122.608C872.292 84.6665 941.429 73.0932 1003.82 92.8572C1066.21 112.621 1116.04 161.879 1152.7 234.125C1189.36 306.374 1212.83 401.578 1222.51 513.145C1241.88 736.276 1206.11 1024.76 1110.57 1325.68Z" stroke="#161515"/>
<path d="M1108 1333.56C1007.23 1632.78 865.588 1886.71 718.067 2055.36C644.306 2139.69 569.092 2202.69 496.801 2239.37C424.512 2276.06 355.184 2286.42 293.148 2265.57C231.111 2244.72 182.153 2194.6 146.762 2121.73C111.37 2048.85 89.5658 1953.25 81.8295 1841.53C66.3571 1618.09 107.162 1330.28 207.931 1031.06C308.701 731.839 450.341 477.914 597.862 309.257C671.623 224.927 746.837 161.934 819.128 125.247C891.416 88.5611 960.745 78.1958 1022.78 99.0457C1084.82 119.896 1133.78 170.016 1169.17 242.892C1204.56 315.77 1226.36 411.37 1234.1 523.09C1249.57 746.528 1208.77 1034.34 1108 1333.56Z" stroke="#161515"/>
<path d="M1105.28 1341.39C999.308 1638.81 853.258 1890.23 702.818 2056.29C627.597 2139.32 551.296 2200.99 478.376 2236.41C405.459 2271.83 335.961 2280.99 274.299 2259.06C212.636 2237.13 164.561 2186.16 130.448 2112.68C96.3337 2039.19 76.2019 1943.22 70.417 1831.38C58.8473 1607.71 104.669 1320.65 210.645 1023.23C316.622 725.808 462.671 474.39 613.111 308.331C688.332 225.3 764.634 163.629 837.553 128.208C910.47 92.7888 979.968 83.6348 1041.63 105.564C1103.29 127.494 1151.37 178.461 1185.48 251.944C1219.6 325.43 1239.73 421.397 1245.51 533.236C1257.08 756.912 1211.26 1043.97 1105.28 1341.39Z" stroke="#161515"/>
<path d="M1102.43 1349.18C991.283 1644.7 840.869 1893.54 687.555 2056.95C610.897 2138.65 533.531 2198.99 460.005 2233.13C386.482 2267.27 316.836 2275.21 255.566 2252.21C194.297 2229.21 147.119 2177.41 114.294 2103.34C81.4682 2029.27 63.0149 1932.96 59.1832 1821.04C51.5197 1597.19 102.345 1310.97 213.495 1015.44C324.646 719.916 475.06 471.083 628.374 307.672C705.032 225.965 782.398 165.634 855.923 131.491C929.447 97.3487 999.093 89.4087 1060.36 112.411C1121.63 135.413 1168.81 187.212 1201.63 261.281C1234.46 335.351 1252.91 431.655 1256.75 543.58C1264.41 767.426 1213.58 1053.65 1102.43 1349.18Z" stroke="#161515"/>
<path d="M1099.45 1356.91C983.157 1650.45 828.424 1896.63 672.283 2057.34C594.211 2137.7 515.805 2196.67 441.695 2229.53C367.588 2262.38 297.814 2269.11 236.956 2245.04C176.098 2220.97 129.832 2168.35 98.3059 2093.72C66.7784 2019.09 50.009 1922.48 48.1316 1810.5C44.3768 1586.55 100.19 1301.26 216.481 1007.71C332.772 714.166 487.505 467.992 643.646 307.279C721.718 226.922 800.124 167.949 874.234 135.094C948.341 102.239 1018.11 95.5156 1078.97 119.584C1139.83 143.652 1186.1 196.267 1217.62 270.898C1249.15 345.53 1265.92 442.143 1267.8 554.119C1271.55 778.067 1215.74 1063.36 1099.45 1356.91Z" stroke="#161515"/>
<path d="M1096.33 1364.59C974.932 1656.06 815.927 1899.5 657.006 2057.47C577.544 2136.45 498.122 2194.05 423.45 2225.61C348.781 2257.16 278.902 2262.67 218.474 2237.54C158.046 2212.41 112.706 2159 82.4877 2083.83C52.2681 2008.66 37.1879 1911.77 37.2654 1799.77C37.4203 1575.79 98.2042 1291.51 219.6 1000.03C340.996 708.558 500 465.119 658.922 307.153C738.384 228.17 817.806 170.573 892.477 139.016C967.146 107.459 1037.03 101.954 1097.45 127.081C1157.88 152.207 1203.22 205.622 1233.44 280.792C1263.66 355.965 1278.74 452.857 1278.66 564.849C1278.51 788.832 1217.72 1073.11 1096.33 1364.59Z" stroke="#161515"/>
<path d="M1093.08 1372.21C966.612 1661.53 803.384 1902.16 641.731 2057.33C560.904 2134.91 480.489 2191.12 405.279 2221.37C330.071 2251.61 260.107 2255.9 200.128 2229.72C140.149 2203.54 95.7484 2149.35 66.8467 2073.66C37.9443 1997.97 24.5579 1900.83 26.5902 1788.85C30.6548 1564.91 96.391 1281.73 222.855 992.409C349.319 703.093 512.547 462.462 674.2 307.292C755.027 229.706 835.442 173.504 910.652 143.254C985.859 113.005 1055.82 108.72 1115.8 134.897C1175.78 161.075 1220.18 215.273 1249.08 290.96C1277.99 366.649 1291.37 463.79 1289.34 575.766C1285.28 799.714 1219.54 1082.89 1093.08 1372.21Z" stroke="#161515"/>
<path d="M1089.69 1379.78C958.197 1666.84 790.795 1904.59 626.46 2056.92C544.291 2133.09 462.909 2187.88 387.183 2216.81C311.46 2245.74 241.432 2248.81 181.92 2221.59C122.407 2194.37 78.9602 2139.4 51.3845 2063.22C23.8079 1987.04 12.1193 1889.68 16.1059 1777.75C24.079 1553.91 94.7474 1271.91 226.241 984.844C357.734 697.775 525.136 460.026 689.471 307.699C771.639 231.535 853.022 176.743 928.747 147.81C1004.47 118.877 1074.5 115.814 1134.01 143.034C1193.52 170.254 1236.97 225.22 1264.55 301.401C1292.12 377.583 1303.81 474.945 1299.82 586.869C1291.85 810.714 1221.18 1092.71 1089.69 1379.78Z" stroke="#161515"/>
<path d="M1086.17 1387.28C949.689 1672.02 778.165 1906.81 611.198 2056.25C527.713 2130.97 445.387 2184.33 369.169 2211.94C292.953 2239.55 222.884 2241.39 163.856 2213.13C104.828 2184.88 62.3477 2129.16 36.1062 2052.51C9.86395 1975.86 -0.123231 1878.31 5.81644 1766.47C17.6955 1542.79 93.2747 1262.07 229.757 977.339C366.24 692.605 537.764 457.811 704.732 308.373C788.216 233.653 870.542 180.29 946.76 152.682C1022.98 125.074 1093.05 123.233 1152.07 151.488C1211.1 179.743 1253.58 235.459 1279.82 312.11C1306.07 388.763 1316.05 486.315 1310.11 598.154C1298.23 821.829 1222.65 1102.55 1086.17 1387.28Z" stroke="#161515"/>
<path d="M1082.52 1394.72C941.094 1677.04 765.499 1908.8 595.951 2055.31C511.176 2128.56 427.932 2180.48 351.244 2206.75C274.559 2233.03 204.469 2233.65 145.944 2204.36C87.4187 2175.08 45.9179 2118.63 21.0187 2041.54C-3.88122 1964.44 -12.164 1866.72 -4.27313 1755C11.5084 1531.57 91.9754 1252.21 233.406 969.895C374.836 687.583 550.431 455.816 719.979 309.312C804.754 236.059 887.998 184.14 964.686 157.865C1041.37 131.592 1111.46 130.974 1169.99 160.255C1228.51 189.536 1270.01 245.985 1294.91 323.083C1319.81 400.184 1328.09 497.895 1320.2 609.615C1304.42 833.051 1223.95 1112.41 1082.52 1394.72Z" stroke="#161515"/>
<path d="M1078.75 1402.1C932.412 1681.91 752.8 1910.58 580.722 2054.1C494.683 2125.87 410.546 2176.33 333.412 2201.26C256.281 2226.19 186.191 2225.58 128.187 2195.29C70.1827 2164.99 29.674 2107.82 6.12464 2030.3C-17.4255 1952.78 -24.0011 1854.93 -14.1616 1743.37C5.51754 1520.24 90.8477 1242.32 237.183 962.517C383.518 682.713 563.13 454.042 735.208 310.517C821.248 238.754 905.384 188.295 982.518 163.362C1059.65 138.431 1129.74 139.035 1187.74 169.334C1245.75 199.632 1286.26 256.797 1309.81 334.319C1333.36 411.843 1339.93 509.685 1330.09 621.251C1310.41 844.381 1225.08 1122.3 1078.75 1402.1Z" stroke="#161515"/>
<path d="M1074.84 1409.41C923.646 1686.63 740.072 1912.13 565.517 2052.63C478.239 2122.88 393.235 2171.87 315.679 2195.45C238.125 2219.03 168.057 2217.21 110.591 2185.9C53.1254 2154.59 13.6212 2096.73 -8.57114 2018.81C-30.7641 1940.88 -35.6309 1842.94 -23.8454 1731.56C-0.274782 1508.81 89.8926 1232.42 241.088 955.206C392.284 677.995 575.857 452.49 750.412 311.988C837.691 241.737 922.694 192.752 1000.25 169.17C1077.8 145.587 1147.87 147.415 1205.34 178.721C1262.8 210.027 1302.31 267.892 1324.5 345.813C1346.69 423.737 1351.56 521.681 1339.77 633.059C1316.2 855.813 1226.04 1132.2 1074.84 1409.41Z" stroke="#161515"/>
<path d="M1070.81 1416.66C914.799 1691.19 727.319 1913.46 550.34 2050.9C461.85 2119.61 376.005 2167.11 298.05 2189.34C220.097 2211.56 150.073 2208.51 93.1627 2176.21C36.2527 2143.9 -2.23493 2085.36 -23.0635 2007.06C-43.8926 1928.76 -47.049 1830.74 -33.3213 1719.59C-5.86615 1497.27 89.1111 1222.5 245.121 947.963C401.13 673.429 588.61 451.16 765.589 313.724C854.08 245.005 939.924 197.511 1017.88 175.285C1095.83 153.059 1165.86 156.11 1222.77 188.414C1279.68 220.718 1318.16 279.264 1338.99 357.562C1359.82 435.862 1362.98 533.876 1349.25 645.033C1321.8 867.345 1226.82 1142.12 1070.81 1416.66Z" stroke="#161515"/>
<path d="M1066.65 1423.83C905.873 1695.6 714.544 1914.57 535.195 2048.9C445.519 2116.06 358.86 2162.05 280.529 2182.91C202.201 2203.78 132.241 2199.5 75.9045 2166.21C19.5677 2132.92 -17.8918 2073.71 -37.3502 1995.06C-56.8091 1916.41 -58.2541 1818.35 -42.5884 1707.45C-11.2572 1485.65 88.5008 1212.57 249.277 940.794C410.053 669.021 601.383 450.054 780.732 315.726C870.407 248.561 957.067 202.572 1035.4 181.709C1113.73 160.847 1183.69 165.118 1240.02 198.411C1296.36 231.704 1333.82 290.913 1353.28 369.563C1372.74 448.216 1374.18 546.271 1358.51 657.173C1327.18 878.974 1227.43 1152.06 1066.65 1423.83Z" stroke="#161515"/>
<path d="M1062.37 1430.93C896.874 1699.85 701.754 1915.45 520.09 2046.63C429.256 2112.22 341.808 2156.69 263.126 2176.19C184.447 2195.68 114.573 2190.19 58.8267 2155.92C3.08023 2121.64 -33.3396 2061.79 -51.422 1982.81C-69.5048 1903.83 -69.238 1805.76 -51.639 1695.15C-16.4413 1473.93 88.0671 1202.62 253.561 933.696C419.055 664.767 614.175 449.17 795.839 317.99C886.673 252.399 974.121 207.928 1052.8 188.435C1131.48 168.943 1201.36 174.434 1257.1 208.705C1312.85 242.977 1349.27 302.831 1367.35 381.809C1385.43 460.79 1385.17 558.858 1367.57 669.47C1332.37 890.694 1227.86 1162 1062.37 1430.93Z" stroke="#161515"/>
<path d="M1057.96 1437.95C887.8 1703.95 688.949 1916.11 505.024 2044.1C413.061 2108.1 324.851 2151.04 245.841 2169.16C166.834 2187.27 97.0681 2180.56 41.9289 2145.32C-13.2102 2110.08 -48.5792 2049.6 -65.28 1970.32C-81.9813 1891.04 -80.0027 1792.99 -60.4757 1682.7C-21.4222 1462.12 87.8049 1192.68 257.966 926.675C428.127 660.671 626.979 448.509 810.903 320.518C902.867 256.522 991.077 213.583 1070.09 195.466C1149.09 177.349 1218.86 184.059 1274 219.298C1329.14 254.537 1364.51 315.018 1381.21 394.301C1397.91 473.587 1395.93 571.635 1376.4 681.926C1337.35 902.503 1228.12 1171.94 1057.96 1437.95Z" stroke="#161515"/>
<path d="M1053.43 1444.89C878.658 1707.89 676.136 1916.55 490.007 2041.31C396.942 2103.7 307.997 2145.09 228.684 2161.83C149.373 2178.56 79.7359 2170.63 25.2209 2134.44C-29.2941 2098.24 -63.6017 2037.15 -78.9158 1957.59C-94.2304 1878.02 -90.5407 1780.02 -69.0917 1670.09C-26.1944 1450.22 87.718 1182.73 262.494 919.731C437.271 656.734 639.793 448.072 825.922 323.308C918.987 260.925 1007.93 219.532 1087.25 202.796C1166.56 186.06 1236.19 193.987 1290.71 230.183C1345.22 266.379 1379.53 327.469 1394.85 407.032C1410.16 486.598 1406.47 584.598 1385.02 694.532C1342.12 914.397 1228.21 1181.89 1053.43 1444.89Z" stroke="#161515"/>
<path d="M1048.79 1451.75C869.447 1711.66 663.315 1916.76 475.039 2038.26C380.9 2099.01 291.247 2138.85 211.655 2154.2C132.066 2169.55 62.5778 2160.41 8.70354 2123.26C-45.1707 2086.12 -78.4063 2024.44 -92.3292 1944.62C-106.252 1864.8 -100.853 1766.88 -77.4882 1657.33C-30.76 1438.25 87.8031 1172.78 267.142 912.868C446.48 652.958 652.612 447.859 840.888 326.36C935.027 265.61 1024.68 225.775 1104.27 210.425C1183.86 195.076 1253.35 204.216 1307.22 241.359C1361.1 278.501 1394.33 340.181 1408.26 420C1422.18 499.822 1416.78 597.744 1393.42 707.288C1346.69 926.374 1228.12 1191.84 1048.79 1451.75Z" stroke="#161515"/>
<path d="M1044.02 1458.54C860.172 1715.28 650.494 1916.75 460.128 2034.95C364.944 2094.05 274.61 2132.31 194.763 2146.27C114.919 2160.23 45.602 2149.88 -7.61516 2111.8C-60.8323 2073.72 -92.9858 2011.47 -105.513 1931.42C-118.041 1851.37 -110.932 1753.55 -85.6598 1644.43C-35.1149 1426.19 88.0627 1162.83 271.909 906.086C455.755 649.342 665.433 447.869 855.799 329.673C950.983 270.574 1041.32 232.309 1121.16 218.35C1201.01 204.392 1270.33 214.744 1323.54 252.821C1376.76 290.898 1408.91 353.149 1421.44 433.2C1433.97 513.253 1426.86 611.068 1401.59 720.188C1351.04 938.428 1227.86 1201.79 1044.02 1458.54Z" stroke="#161515"/>
<path d="M1039.13 1465.23C850.836 1718.73 637.676 1916.52 445.278 2031.38C349.078 2088.81 258.09 2125.49 178.013 2138.05C97.9378 2150.62 28.813 2139.06 -23.7307 2100.06C-76.2745 2061.06 -107.336 1998.25 -118.464 1917.99C-129.592 1837.73 -120.778 1740.06 -93.6045 1631.39C-39.2585 1414.07 88.4962 1152.89 276.794 899.388C465.091 645.889 678.252 448.103 870.65 333.245C966.85 275.815 1057.84 239.132 1137.91 226.568C1217.99 214.005 1287.11 225.565 1339.66 264.565C1392.2 303.566 1423.26 366.369 1434.39 446.627C1445.52 526.888 1436.71 624.564 1409.53 733.229C1355.19 950.555 1227.43 1211.73 1039.13 1465.23Z" stroke="#161515"/>
<path d="M1034.13 1471.84C841.442 1722.02 624.864 1916.06 430.492 2027.54C333.305 2083.29 241.692 2118.38 161.409 2129.54C81.1274 2140.71 12.2157 2127.94 -39.6387 2088.03C-91.4931 2048.12 -121.453 1984.78 -131.179 1904.34C-140.904 1823.9 -130.386 1726.39 -101.32 1618.21C-43.1896 1401.87 89.1031 1142.95 281.795 892.777C474.487 642.599 691.065 448.56 885.437 337.076C982.623 281.333 1074.24 246.242 1154.52 235.078C1234.8 223.913 1303.71 236.678 1355.57 276.59C1407.42 316.501 1437.38 379.838 1447.11 460.279C1456.83 540.723 1446.31 638.231 1417.25 746.406C1359.12 962.754 1226.83 1221.67 1034.13 1471.84Z" stroke="#161515"/>
<path d="M1029.02 1478.37C831.99 1725.15 612.06 1915.38 415.775 2023.46C317.631 2077.5 225.42 2110.98 144.955 2120.75C64.492 2130.51 -4.18565 2116.54 -55.3349 2075.73C-106.484 2034.92 -135.334 1971.07 -143.653 1890.47C-151.973 1809.87 -139.755 1712.56 -108.806 1604.9C-46.9079 1389.6 89.8826 1133.03 286.91 886.254C483.937 639.474 703.867 449.242 900.153 341.165C998.297 287.126 1090.51 253.638 1170.97 243.876C1251.44 234.115 1320.11 248.08 1371.26 288.891C1422.41 329.702 1451.26 393.552 1459.58 474.151C1467.9 554.753 1455.68 652.065 1424.73 759.717C1362.84 975.02 1226.04 1231.59 1029.02 1478.37Z" stroke="#161515"/>
<path d="M1023.79 1484.8C822.487 1728.11 599.272 1914.48 401.132 2019.11C302.061 2071.43 209.281 2103.3 128.658 2111.66C48.0383 2120.02 -20.3844 2104.86 -70.8129 2063.16C-121.241 2021.46 -148.972 1957.12 -155.883 1876.38C-162.794 1795.65 -148.879 1698.56 -116.056 1591.46C-50.4106 1377.27 90.8361 1123.13 292.139 879.821C493.442 636.513 716.656 450.146 914.796 345.509C1013.87 293.19 1106.65 261.317 1187.27 252.96C1267.89 244.604 1336.31 259.765 1386.74 301.463C1437.17 343.161 1464.9 407.505 1471.81 488.239C1478.72 568.974 1464.81 666.059 1431.98 773.156C1366.34 987.348 1225.09 1241.49 1023.79 1484.8Z" stroke="#161515"/>
<path d="M1018.45 1491.14C812.934 1730.9 586.503 1913.35 386.569 2014.51C286.6 2065.09 193.279 2095.34 112.524 2102.29C31.7711 2109.24 -36.3757 2092.89 -86.0681 2050.32C-135.761 2007.74 -162.363 1942.93 -167.864 1862.08C-173.365 1781.24 -157.758 1684.41 -123.071 1577.9C-53.6968 1364.88 91.963 1113.24 297.48 873.48C502.997 633.719 729.428 451.273 929.362 350.108C1029.33 299.526 1122.65 269.275 1203.41 262.327C1284.16 255.378 1352.31 271.732 1402 314.304C1451.69 356.875 1478.29 421.695 1483.79 502.537C1489.3 583.382 1473.69 680.21 1439 786.72C1369.63 999.736 1223.97 1251.38 1018.45 1491.14Z" stroke="#161515"/>
<path d="M1013 1497.39C803.332 1733.53 573.753 1912 372.086 2009.66C271.251 2058.49 177.417 2087.11 96.5539 2092.65C15.6928 2098.18 -52.1574 2080.64 -101.099 2037.21C-150.04 1993.78 -175.507 1928.5 -179.596 1847.58C-183.685 1766.65 -166.39 1670.11 -129.849 1564.22C-56.768 1352.44 93.2605 1103.37 302.929 867.233C512.597 631.093 742.176 452.623 943.844 354.962C1044.68 306.131 1138.51 277.513 1219.38 271.975C1300.24 266.436 1368.09 283.976 1417.03 327.409C1465.97 370.842 1491.44 436.117 1495.52 517.044C1499.61 597.973 1482.32 694.515 1445.78 800.404C1372.7 1012.18 1222.67 1261.25 1013 1497.39Z" stroke="#161515"/>
<path d="M1007.44 1503.54C793.686 1735.99 561.03 1910.43 357.69 2004.55C256.02 2051.62 161.702 2078.59 80.7548 2082.72C-0.189729 2086.85 -67.7226 2068.13 -115.898 2023.85C-164.073 1979.56 -188.396 1913.86 -191.072 1832.87C-193.747 1751.88 -174.77 1655.65 -136.387 1550.42C-59.6213 1339.94 94.7302 1093.53 308.486 861.083C522.242 628.634 754.899 454.196 958.238 360.067C1059.91 313.002 1154.23 286.026 1235.17 281.9C1316.12 277.773 1383.65 296.495 1431.83 340.775C1480 385.056 1504.32 450.766 1507 531.753C1509.68 612.742 1490.7 708.969 1452.32 814.205C1375.55 1024.68 1221.2 1271.09 1007.44 1503.54Z" stroke="#161515"/>
<path d="M1001.78 1509.59C784 1738.28 548.337 1908.63 343.388 1999.2C240.912 2044.48 146.139 2069.81 65.133 2072.52C-15.8703 2075.24 -83.0654 2055.34 -130.46 2010.22C-177.854 1965.11 -201.026 1898.98 -202.288 1817.96C-203.549 1736.94 -182.895 1641.05 -142.681 1536.5C-62.2547 1327.4 96.3728 1083.72 314.151 855.029C531.93 626.343 767.593 455.989 972.542 365.422C1075.02 320.138 1169.79 294.811 1250.8 292.098C1331.8 289.384 1399 309.282 1446.39 354.397C1493.78 399.512 1516.96 465.637 1518.22 546.659C1519.48 627.684 1498.83 723.565 1458.61 828.117C1378.18 1037.22 1219.56 1280.9 1001.78 1509.59Z" stroke="#161515"/>
<path d="M996.009 1515.54C774.274 1740.4 535.675 1906.62 329.179 1993.59C225.93 2037.08 130.73 2060.75 49.6898 2062.05C-31.3476 2063.35 -98.1844 2042.29 -144.783 1996.35C-191.382 1950.41 -213.397 1883.89 -213.244 1802.86C-213.091 1721.83 -190.766 1626.32 -148.734 1522.48C-64.6706 1314.81 98.1847 1073.93 319.92 849.077C541.654 624.223 780.253 458.006 986.749 371.027C1090 327.538 1185.2 303.869 1266.24 302.569C1347.28 301.269 1414.11 322.336 1460.71 368.272C1507.31 414.208 1529.32 480.728 1529.17 561.76C1529.02 642.796 1506.69 738.304 1464.66 842.139C1380.6 1049.81 1217.74 1290.69 996.009 1515.54Z" stroke="#161515"/>
<path d="M990.138 1521.4C764.514 1742.35 523.054 1904.38 315.073 1987.74C211.081 2029.42 115.483 2051.43 34.4343 2051.31C-46.6125 2051.2 -113.071 2028.97 -158.86 1982.23C-204.65 1935.48 -225.499 1868.59 -223.932 1787.57C-222.364 1706.55 -198.377 1611.44 -154.539 1508.36C-66.864 1302.18 100.169 1064.18 325.793 843.225C551.416 622.272 792.877 460.241 1000.86 376.878C1104.85 335.196 1200.45 313.192 1281.5 313.306C1362.54 313.421 1429 335.651 1474.79 382.393C1520.58 429.136 1541.43 496.03 1539.86 577.049C1538.29 658.07 1514.31 753.175 1470.47 856.263C1382.79 1062.44 1215.76 1300.44 990.138 1521.4Z" stroke="#161515"/>
<path d="M984.164 1527.14C754.72 1744.13 510.471 1901.92 301.069 1981.65C196.367 2021.51 100.401 2041.84 19.3666 2040.31C-61.6651 2038.78 -127.724 2015.4 -172.69 1967.86C-217.657 1920.33 -237.335 1853.08 -234.354 1772.1C-231.372 1691.11 -205.728 1596.44 -160.098 1494.13C-68.8389 1289.52 102.322 1054.46 331.765 837.477C561.209 620.492 805.458 462.698 1014.86 382.976C1119.56 343.114 1215.53 322.781 1296.56 324.31C1377.59 325.838 1443.65 349.225 1488.62 396.76C1533.59 444.295 1553.26 511.544 1550.28 592.524C1547.3 673.506 1521.66 768.179 1476.03 870.487C1384.77 1075.1 1213.61 1310.16 984.164 1527.14Z" stroke="#161515"/>
<path d="M978.09 1532.79C744.897 1745.74 497.933 1899.25 287.173 1975.31C181.792 2013.33 85.4872 2031.99 4.49316 2029.05C-76.4986 2026.11 -142.139 2001.57 -186.268 1953.26C-230.397 1904.94 -248.898 1837.36 -244.504 1756.44C-240.109 1675.53 -212.817 1581.31 -165.408 1479.82C-70.5924 1276.82 104.643 1044.78 337.837 831.834C571.03 618.884 817.994 465.374 1028.75 389.317C1134.13 351.288 1230.44 332.632 1311.43 335.575C1392.43 338.517 1458.07 363.053 1502.19 411.366C1546.32 459.679 1564.83 527.262 1560.43 608.178C1556.04 689.097 1528.74 783.309 1481.34 884.806C1386.52 1087.8 1211.28 1319.84 978.09 1532.79Z" stroke="#161515"/>
<path d="M971.92 1538.32C735.048 1747.18 485.445 1896.36 273.392 1968.72C167.365 2004.91 70.7494 2021.88 -10.1801 2017.53C-91.107 2013.17 -156.308 1987.49 -199.587 1938.42C-242.865 1889.34 -260.184 1821.44 -254.378 1740.62C-248.571 1659.79 -219.639 1566.06 -170.467 1465.41C-72.123 1264.1 107.134 1035.15 344.007 826.298C580.879 617.447 830.483 468.267 1042.54 395.899C1148.56 359.715 1245.18 342.742 1326.11 347.097C1407.03 351.452 1472.24 377.131 1515.51 426.207C1558.79 475.282 1576.11 543.179 1570.31 624.007C1564.5 704.838 1535.57 798.56 1486.39 899.216C1388.05 1100.53 1208.79 1329.47 971.92 1538.32Z" stroke="#161515"/>
<path d="M965.656 1543.75C725.176 1748.44 473.01 1893.24 259.729 1961.9C153.087 1996.23 56.1914 2011.52 -24.6488 2005.75C-105.487 1999.98 -170.229 1973.17 -212.644 1923.34C-255.058 1873.52 -271.189 1805.33 -263.973 1724.62C-256.757 1643.9 -226.193 1550.69 -175.272 1450.91C-73.4301 1251.35 109.794 1025.56 350.274 820.869C590.753 616.18 842.92 471.377 1056.2 402.719C1162.84 368.39 1259.74 353.105 1340.58 358.872C1421.42 364.639 1486.16 391.452 1528.57 441.276C1570.99 491.1 1587.12 559.289 1579.9 640.004C1572.69 720.722 1542.12 813.927 1491.2 913.71C1389.36 1113.28 1206.14 1339.06 965.656 1543.75Z" stroke="#161515"/>
<path d="M959.297 1549.07C715.284 1749.53 460.631 1889.92 246.186 1954.84C138.963 1987.31 41.8161 2000.9 -38.9101 1993.72C-119.634 1986.54 -183.898 1958.61 -225.436 1908.05C-266.974 1857.49 -281.912 1789.03 -273.288 1708.45C-264.664 1627.87 -232.478 1535.21 -179.824 1436.33C-74.515 1238.57 112.621 1016.01 356.634 815.55C600.647 615.087 855.3 474.705 1069.74 409.778C1176.97 377.314 1274.11 363.723 1354.84 370.899C1435.56 378.076 1499.83 406.014 1541.37 456.571C1582.9 507.129 1597.84 575.589 1589.22 656.168C1580.59 736.748 1548.41 829.406 1495.75 928.287C1390.45 1126.05 1203.31 1348.61 959.297 1549.07Z" stroke="#161515"/>
<path d="M952.846 1554.28C705.374 1750.45 448.312 1886.37 232.769 1947.55C124.997 1978.14 27.6287 1990.03 -52.9592 1981.45C-133.545 1972.86 -197.31 1943.81 -237.959 1892.53C-278.608 1841.26 -292.348 1772.54 -282.319 1692.13C-272.29 1611.71 -238.492 1519.63 -184.12 1421.68C-75.3768 1225.78 115.613 1006.52 363.085 810.344C610.558 614.167 867.619 478.248 1083.16 417.072C1190.93 386.484 1288.3 374.59 1368.89 383.174C1449.48 391.758 1513.24 420.814 1553.89 472.089C1594.54 523.364 1608.28 592.075 1598.25 672.492C1588.22 752.911 1554.42 844.994 1500.05 942.942C1391.31 1138.84 1200.32 1358.1 952.846 1554.28Z" stroke="#161515"/>
<path d="M946.305 1559.37C695.448 1751.2 436.056 1882.61 219.481 1940.02C111.192 1968.72 13.6321 1978.92 -66.7928 1968.93C-147.215 1958.94 -210.463 1928.77 -250.21 1876.8C-289.957 1824.82 -302.496 1755.88 -291.065 1675.65C-279.634 1595.42 -244.234 1503.94 -188.161 1406.95C-76.0163 1212.98 118.77 997.082 369.626 805.251C620.482 613.42 879.874 482.006 1096.45 424.6C1204.74 395.897 1302.3 385.703 1382.72 395.692C1463.15 405.681 1526.39 435.845 1566.14 487.822C1605.89 539.799 1618.43 608.741 1607 688.971C1595.56 769.204 1560.16 860.684 1504.09 957.67C1391.95 1151.64 1197.16 1367.54 946.305 1559.37Z" stroke="#161515"/>
</svg>
